<svg version="1.0" xmlns="http://www.w3.org/2000/svg" preserveAspectRatio="xMidYMid meet" viewBox="319.4 396 1409.37 430.2">

<g transform="translate(0.000000,1228.000000) scale(0.100000,-0.100000)" fill="#000000" stroke="none">
<path d="M13539 8213 c-62 -60 -146 -148 -188 -198 -158 -189 -312 -458 -390 -679 -34 -97 -41 -110 -69 -122 -18 -7 -32 -18 -32 -24 0 -5 -20 -10 -43 -10 -56 0 -74 -19 -89 -94 -14 -66 -8 -83 40 -106 17 -8 32 -22 32 -31 0 -9 8 -27 18 -39 17 -22 17 -26 -1 -134 -27 -156 -29 -493 -3 -661 32 -212 124 -533 156 -543 9 -3 11 3 7 24 -19 84 -38 236 -48 374 -10 130 -9 177 5 293 26 223 66 400 106 465 33 54 75 74 142 67 58 -6 91 3 113 31 8 10 266 -53 1235 -301 674 -173 1237 -315 1253 -315 39 0 61 27 76 93 11 51 11 61 -3 82 -9 13 -33 29 -53 35 -21 6 -580 150 -1243 319 l-1204 308 -8 32 c-7 26 -19 36 -72 61 -74 35 -96 69 -96 145 0 90 86 365 165 530 50 103 197 331 273 422 50 60 62 83 43 83 -5 0 -60 -48 -122 -107z m-163 -251 c-96 -145 -200 -339 -260 -484 -48 -115 -109 -288 -104 -293 2 -2 55 -24 118 -49 63 -25 112 -45 108 -45 -4 -1 -64 13 -134 29 -71 17 -135 29 -142 28 -21 -4 -67 -185 -52 -204 7 -7 59 -28 117 -46 58 -17 101 -34 96 -35 -6 -2 -50 3 -99 10 -49 8 -90 14 -91 13 -1 -1 -9 -43 -18 -94 -43 -248 -56 -555 -34 -776 6 -59 9 -110 6 -112 -2 -3 -12 53 -21 123 -30 223 -22 524 20 786 15 93 15 99 -2 118 -16 18 -17 26 -6 78 25 121 40 156 69 167 23 8 32 22 47 70 55 179 195 470 302 630 58 87 161 224 168 224 2 0 -38 -62 -88 -138z m-536 -833 c0 -21 -23 -104 -31 -114 -6 -6 -15 -4 -24 5 -21 22 8 120 36 120 10 0 19 -5 19 -11z m1739 -440 c669 -171 1220 -314 1225 -319 10 -10 -1 -83 -17 -104 -11 -14 -152 20 -1241 299 -677 174 -1231 317 -1234 319 -3 4 11 68 23 104 2 6 10 12 17 12 6 0 559 -140 1227 -311z m-1682 -831 c-3 -7 -5 -2 -5 12 0 14 2 19 5 13 2 -7 2 -19 0 -25z"/>
<path d="M13501 6926 c14 -12 390 -113 1184 -316 227 -58 516 -123 521 -117 11 11 -1080 298 -1493 393 -185 42 -222 49 -212 40z"/>
<path d="M11343 7867 c-2 -4 -4 -45 -4 -90 0 -59 10 -1659 11 -1719 0 -9 315 -10 347 -2 20 5 22 11 18 43 -7 57 -16 782 -15 1294 0 370 -2 468 -12 472 -24 8 -340 10 -345 2z m245 -365 c2 -7 -3 -12 -12 -12 -9 0 -16 7 -16 16 0 17 22 14 28 -4z m-54 -292 c-14 -14 -39 14 -29 31 5 8 12 6 23 -5 11 -11 13 -19 6 -26z m-79 -120 c-5 -8 -11 -8 -17 -2 -6 6 -7 16 -3 22 5 8 11 8 17 2 6 -6 7 -16 3 -22z m145 -60 c0 -5 -5 -10 -11 -10 -5 0 -7 5 -4 10 3 6 8 10 11 10 2 0 4 -4 4 -10z m-105 -298 c0 -18 -20 -15 -23 4 -3 10 1 15 10 12 7 -3 13 -10 13 -16z m-31 -167 c-4 -8 -12 -15 -20 -15 -8 0 -14 7 -14 15 0 8 9 15 20 15 13 0 18 -5 14 -15z m82 -296 c10 -17 -13 -36 -27 -22 -12 12 -4 33 11 33 5 0 12 -5 16 -11z"/>
<path d="M10370 7854 c-23 -8 -60 -39 -107 -90 -40 -44 -73 -82 -73 -86 0 -4 -20 -29 -45 -55 -63 -67 -73 -118 -22 -111 14 2 23 -3 25 -15 3 -15 -2 -18 -25 -15 l-28 3 -1 -205 c-1 -113 -3 -209 -5 -215 -4 -11 99 -138 201 -246 l65 -70 201 0 201 -1 32 -41 c41 -54 57 -106 42 -136 -7 -12 -9 -26 -6 -31 22 -36 -87 -107 -121 -79 -10 8 -43 10 -109 6 l-94 -6 -21 28 c-14 21 -20 45 -20 84 l0 56 -174 0 c-129 1 -176 -2 -184 -12 -6 -7 -11 -65 -11 -139 l0 -126 52 -63 c48 -58 109 -143 147 -205 l15 -24 320 0 320 0 60 73 c33 39 91 110 129 156 l69 84 -1 245 0 244 -55 82 c-30 44 -61 92 -67 106 -12 23 -26 42 -83 112 l-22 28 -214 1 -215 2 -39 41 c-39 41 -39 42 -33 101 4 33 7 70 7 83 1 12 6 22 13 21 6 -1 18 0 26 4 8 3 62 8 120 11 58 3 115 8 127 12 34 10 86 -48 78 -87 -14 -64 -11 -65 160 -68 86 -1 163 3 174 8 15 9 19 28 25 129 7 139 4 151 -62 236 -27 34 -55 72 -64 86 -9 14 -27 38 -41 54 l-24 29 -169 4 c-338 9 -439 8 -474 -3z m666 -163 c23 19 29 1 10 -32 -12 -20 -15 -39 -11 -59 7 -33 -8 -41 -23 -12 -25 46 -24 152 0 108 8 -14 13 -15 24 -5z m-556 -31 c0 -5 -4 -10 -10 -10 -5 0 -10 5 -10 10 0 6 5 10 10 10 6 0 10 -4 10 -10z m140 -6 c0 -8 -5 -12 -10 -9 -6 4 -8 11 -5 16 9 14 15 11 15 -7z m290 -20 c0 -8 -4 -14 -10 -14 -5 0 -10 9 -10 21 0 11 5 17 10 14 6 -3 10 -13 10 -21z m-35 -4 c3 -5 1 -10 -4 -10 -6 0 -11 5 -11 10 0 6 2 10 4 10 3 0 8 -4 11 -10z m85 -20 c0 -5 -4 -10 -10 -10 -5 0 -10 5 -10 10 0 6 5 10 10 10 6 0 10 -4 10 -10z m-770 -10 c0 -5 -4 -10 -10 -10 -5 0 -10 5 -10 10 0 6 5 10 10 10 6 0 10 -4 10 -10z m275 -20 c19 -8 19 -8 -5 -18 -27 -11 -47 -1 -36 17 8 13 13 13 41 1z m523 -28 c2 -12 -1 -22 -7 -22 -13 0 -32 35 -24 44 12 12 28 0 31 -22z m82 7 c0 -11 -4 -17 -10 -14 -5 3 -10 13 -10 21 0 8 5 14 10 14 6 0 10 -9 10 -21z m-490 -4 c-14 -17 -30 -20 -30 -6 0 5 8 12 18 14 9 3 19 5 21 6 2 0 -2 -6 -9 -14z m-340 -35 c0 -5 -9 -10 -20 -10 -11 0 -20 5 -20 10 0 6 9 10 20 10 11 0 20 -4 20 -10z m58 -18 c-5 -23 -25 -25 -31 -3 -6 24 0 31 19 24 8 -3 14 -12 12 -21z m762 19 c0 -12 -20 -25 -27 -18 -7 7 6 27 18 27 5 0 9 -4 9 -9z m40 -41 c0 -16 -4 -30 -10 -30 -5 0 -10 14 -10 30 0 17 5 30 10 30 6 0 10 -13 10 -30z m-80 -41 c0 -5 -4 -9 -10 -9 -5 0 -10 7 -10 16 0 8 5 12 10 9 6 -3 10 -10 10 -16z m-680 -50 c0 -10 -4 -19 -10 -19 -5 0 -10 12 -10 26 0 14 4 23 10 19 6 -3 10 -15 10 -26z m-40 -153 c0 -3 -4 -8 -10 -11 -5 -3 -10 -1 -10 4 0 6 5 11 10 11 6 0 10 -2 10 -4z m15 -166 c3 -5 -3 -10 -14 -10 -12 0 -21 5 -21 10 0 6 6 10 14 10 8 0 18 -4 21 -10z m146 -63 c-1 -12 -15 -9 -19 4 -3 6 1 10 8 8 6 -3 11 -8 11 -12z m13 -58 c-3 -5 -10 -7 -15 -3 -5 3 -7 10 -3 15 3 5 10 7 15 3 5 -3 7 -10 3 -15z m516 -129 c0 -5 -4 -10 -10 -10 -5 0 -10 5 -10 10 0 6 5 10 10 10 6 0 10 -4 10 -10z m110 -214 c0 -3 -4 -8 -10 -11 -5 -3 -10 -1 -10 4 0 6 5 11 10 11 6 0 10 -2 10 -4z m-70 -40 c0 -16 -18 -31 -27 -22 -8 8 5 36 17 36 5 0 10 -6 10 -14z m40 -106 c0 -5 -4 -10 -10 -10 -5 0 -10 5 -10 10 0 6 5 10 10 10 6 0 10 -4 10 -10z m-530 -225 c0 -8 -4 -15 -10 -15 -5 0 -10 7 -10 15 0 8 5 15 10 15 6 0 10 -7 10 -15z"/>
<path d="M7757 7843 c-3 -5 -3 -23 2 -39 4 -16 3 -45 -2 -64 -5 -19 -6 -57 -3 -85 3 -27 6 -75 6 -105 -1 -30 0 -134 1 -230 1 -96 1 -186 0 -200 -1 -14 -3 -260 -5 -547 l-4 -523 91 0 c51 0 241 -3 423 -6 l331 -6 57 82 c31 45 56 85 56 89 0 4 9 16 21 27 12 10 33 42 47 69 29 55 32 99 21 356 l-6 127 -43 68 c-23 38 -54 81 -68 96 -35 38 -27 88 27 159 42 56 53 103 29 127 -10 10 -10 15 -1 20 7 4 12 44 13 107 3 172 2 179 -27 218 -16 20 -64 86 -108 146 l-80 109 -195 3 c-284 3 -292 3 -330 0 -19 -1 -83 1 -141 5 -66 4 -108 3 -112 -3z m733 -213 c0 -5 -4 -10 -10 -10 -5 0 -10 5 -10 10 0 6 5 10 10 10 6 0 10 -4 10 -10z m-105 -41 c4 -5 -1 -19 -11 -30 -23 -25 -41 -9 -22 20 14 23 24 26 33 10z m-464 -39 c10 0 19 -4 19 -10 0 -5 -8 -10 -18 -10 -21 0 -46 36 -35 53 5 8 9 5 11 -10 2 -15 10 -23 23 -23z m363 25 c-4 -8 -13 -15 -21 -15 -13 0 -13 3 -3 15 7 8 16 15 21 15 5 0 6 -7 3 -15z m246 -32 c0 -7 -4 -13 -8 -13 -15 0 -32 24 -32 44 0 18 1 19 20 1 11 -10 20 -24 20 -32z m70 37 c0 -5 -4 -10 -10 -10 -5 0 -10 5 -10 10 0 6 5 10 10 10 6 0 10 -4 10 -10z m-116 -27 c4 -10 -1 -24 -12 -35 -18 -19 -19 -18 -20 16 -1 38 20 51 32 19z m16 -53 c0 -5 -5 -10 -11 -10 -5 0 -7 5 -4 10 3 6 8 10 11 10 2 0 4 -4 4 -10z m-280 -15 c0 -8 -4 -15 -10 -15 -5 0 -10 7 -10 15 0 8 5 15 10 15 6 0 10 -7 10 -15z m334 -1 c10 -26 -1 -28 -25 -5 -22 21 -22 21 -2 21 11 0 24 -7 27 -16z m-414 -4 c0 -5 -4 -10 -10 -10 -5 0 -10 5 -10 10 0 6 5 10 10 10 6 0 10 -4 10 -10z m357 -52 c-3 -8 -6 -5 -6 6 -1 11 2 17 5 13 3 -3 4 -12 1 -19z m-195 -14 c64 -9 80 -39 72 -132 -5 -49 -13 -78 -28 -96 -24 -29 -28 -30 -143 -28 l-82 2 4 128 c2 70 4 128 4 130 2 5 129 2 173 -4z m266 -82 c2 -7 -3 -12 -12 -12 -9 0 -16 7 -16 16 0 17 22 14 28 -4z m-48 -12 c0 -5 -4 -10 -10 -10 -5 0 -10 5 -10 10 0 6 5 10 10 10 6 0 10 -4 10 -10z m-519 -33 c-13 -13 -26 -3 -16 12 3 6 11 8 17 5 6 -4 6 -10 -1 -17z m529 -37 c0 -5 -2 -10 -4 -10 -3 0 -8 5 -11 10 -3 6 -1 10 4 10 6 0 11 -4 11 -10z m10 -50 c8 -15 8 -20 -3 -20 -14 0 -37 19 -37 32 0 16 30 7 40 -12z m-100 -60 c0 -5 -2 -10 -4 -10 -3 0 -8 5 -11 10 -3 6 -1 10 4 10 6 0 11 -4 11 -10z m-600 -14 c0 -21 -21 -31 -30 -15 -5 7 -6 17 -4 21 9 14 34 9 34 -6z m670 -41 c0 -8 -4 -15 -10 -15 -5 0 -10 7 -10 15 0 8 5 15 10 15 6 0 10 -7 10 -15z m-160 -5 c0 -5 -5 -10 -11 -10 -5 0 -7 5 -4 10 3 6 8 10 11 10 2 0 4 -4 4 -10z m125 -28 c0 -18 -20 -15 -23 4 -3 10 1 15 10 12 7 -3 13 -10 13 -16z m72 -42 c8 -12 9 -21 3 -25 -6 -3 -10 1 -10 9 0 9 -4 16 -10 16 -5 0 -10 5 -10 10 0 16 14 11 27 -10z m-157 -5 c0 -8 -4 -15 -10 -15 -5 0 -10 7 -10 15 0 8 5 15 10 15 6 0 10 -7 10 -15z m-64 -52 c-11 -11 -19 6 -11 24 8 17 8 17 12 0 3 -10 2 -21 -1 -24z m-196 -23 c0 -5 -2 -10 -4 -10 -3 0 -8 5 -11 10 -3 6 -1 10 4 10 6 0 11 -4 11 -10z m4 -39 c3 -4 3 -11 0 -14 -8 -8 -34 3 -34 14 0 11 27 12 34 0z m302 -13 c-3 -7 -9 -21 -12 -30 -4 -10 -10 -18 -15 -18 -13 0 -11 34 3 48 16 16 31 15 24 0z m49 -18 c7 -12 -12 -50 -25 -50 -6 0 -10 14 -10 30 0 30 21 42 35 20z m-114 -23 c-13 -13 -26 -3 -16 12 3 6 11 8 17 5 6 -4 6 -10 -1 -17z m189 -83 c0 -8 -4 -12 -10 -9 -5 3 -10 10 -10 16 0 5 5 9 10 9 6 0 10 -7 10 -16z m-174 -16 c21 -24 50 -121 40 -136 -3 -5 -6 -44 -8 -86 -2 -77 -5 -85 -26 -64 -8 8 -15 8 -24 1 -16 -14 -48 -16 -159 -15 l-85 2 -2 155 -2 154 112 4 c62 1 118 4 124 5 6 1 19 -8 30 -20z m289 12 c-3 -5 -10 -10 -16 -10 -5 0 -9 5 -9 10 0 6 7 10 16 10 8 0 12 -4 9 -10z m-60 -31 c4 -5 0 -18 -9 -28 -18 -20 -21 -41 -5 -41 6 0 9 -8 7 -17 -6 -33 -33 -20 -36 16 -5 51 25 100 43 70z m-75 -59 c0 -5 -7 -10 -15 -10 -8 0 -15 5 -15 10 0 6 7 10 15 10 8 0 15 -4 15 -10z m-505 -50 c3 -5 1 -10 -4 -10 -6 0 -11 5 -11 10 0 6 2 10 4 10 3 0 8 -4 11 -10z m585 -28 c0 -4 -5 -13 -11 -19 -7 -7 -6 -15 5 -26 11 -11 13 -18 5 -23 -20 -12 -36 27 -23 60 6 16 24 22 24 8z m-150 -26 c0 -3 -4 -8 -10 -11 -5 -3 -10 -1 -10 4 0 6 5 11 10 11 6 0 10 -2 10 -4z m156 -93 c-10 -10 -19 5 -10 18 6 11 8 11 12 0 2 -7 1 -15 -2 -18z m-654 2 c0 -5 -5 -11 -11 -13 -6 -2 -11 4 -11 13 0 9 5 15 11 13 6 -2 11 -8 11 -13z m595 -17 c-3 -8 -6 -5 -6 6 -1 11 2 17 5 13 3 -3 4 -12 1 -19z m23 -38 c0 -11 -4 -20 -10 -20 -5 0 -10 9 -10 20 0 11 5 20 10 20 6 0 10 -9 10 -20z m-30 -16 c0 -8 -7 -14 -15 -14 -17 0 -18 2 -9 24 7 18 24 12 24 -10z m60 -38 c0 -21 -21 -31 -30 -15 -5 7 -6 17 -4 21 9 14 34 9 34 -6z m-680 -16 c0 -5 -2 -10 -4 -10 -3 0 -8 5 -11 10 -3 6 -1 10 4 10 6 0 11 -4 11 -10z m600 -113 c0 -21 -12 -28 -27 -16 -19 16 -16 29 7 29 11 0 20 -6 20 -13z"/>
<path d="M9278 7839 c16 -17 15 -73 -2 -129 -7 -25 -19 -85 -26 -135 -7 -49 -16 -94 -20 -100 -4 -5 -10 -32 -13 -60 -2 -27 -14 -85 -26 -129 -11 -43 -21 -89 -21 -102 0 -12 -4 -25 -9 -28 -5 -3 -11 -20 -14 -38 -14 -93 -47 -249 -61 -289 -19 -55 -46 -200 -46 -247 0 -18 -6 -46 -14 -61 -18 -34 -46 -152 -46 -192 0 -17 -5 -39 -11 -50 -5 -11 -12 -33 -14 -50 -2 -17 -9 -37 -15 -44 -6 -8 -10 -22 -9 -32 2 -10 -1 -28 -5 -40 -4 -13 -5 -31 -2 -40 5 -16 22 -18 177 -16 94 0 175 5 179 10 5 4 13 31 17 58 l8 50 165 0 165 0 9 -60 c5 -33 14 -63 20 -67 5 -4 90 -7 189 -8 l179 0 -7 52 c-3 29 -15 87 -26 128 -10 41 -28 125 -38 185 -11 61 -24 135 -30 165 -6 30 -17 96 -26 145 -28 169 -57 300 -68 314 -7 8 -11 22 -9 32 2 10 -4 66 -13 126 -17 117 -19 128 -40 218 -18 76 -62 306 -70 366 -4 25 -10 51 -14 58 -7 11 -77 15 -161 9 -14 -1 -79 2 -145 6 -99 7 -118 6 -107 -5z m117 -219 c3 -5 -1 -10 -10 -10 -9 0 -13 5 -10 10 3 6 8 10 10 10 2 0 7 -4 10 -10z m55 -79 c0 -6 -4 -13 -10 -16 -5 -3 -10 1 -10 9 0 9 5 16 10 16 6 0 10 -4 10 -9z m-120 -15 c0 -2 -7 -9 -15 -16 -12 -10 -15 -10 -15 4 0 9 7 16 15 16 8 0 15 -2 15 -4z m-40 -92 c0 -31 -23 -28 -28 4 -2 15 2 22 12 22 11 0 16 -9 16 -26z m107 -11 c-9 -9 -19 -14 -23 -11 -10 10 6 28 24 28 15 0 15 -1 -1 -17z m-4 -117 c-9 -54 -31 -46 -31 12 1 58 6 69 24 44 8 -12 11 -32 7 -56z m-46 2 c-3 -8 -6 -5 -6 6 -1 11 2 17 5 13 3 -3 4 -12 1 -19z m-87 -3 c0 -8 -4 -15 -10 -15 -5 0 -10 7 -10 15 0 8 5 15 10 15 6 0 10 -7 10 -15z m440 -25 c0 -5 -4 -10 -10 -10 -5 0 -10 5 -10 10 0 6 5 10 10 10 6 0 10 -4 10 -10z m-245 -21 c4 -6 5 -13 1 -16 -8 -8 -56 6 -56 17 0 13 47 13 55 -1z m155 -20 c0 -11 6 -27 14 -35 17 -17 32 -122 20 -134 -15 -15 -87 57 -79 78 14 33 23 85 18 98 -3 8 1 14 11 14 10 0 16 -8 16 -21z m-185 -119 c-11 -18 -22 -11 -22 14 0 22 1 23 14 11 8 -8 11 -19 8 -25z m116 -13 c-13 -13 -26 -3 -16 12 3 6 11 8 17 5 6 -4 6 -10 -1 -17z m-77 4 c7 -10 -18 -34 -27 -25 -7 8 3 34 13 34 5 0 11 -4 14 -9z m-154 -21 c0 -5 -4 -10 -10 -10 -5 0 -10 5 -10 10 0 6 5 10 10 10 6 0 10 -4 10 -10z m-44 -15 c10 -25 -7 -40 -23 -20 -7 11 -13 22 -13 27 0 14 30 9 36 -7z m284 -24 c14 -27 14 -28 -20 -29 -31 -1 -39 15 -18 36 17 17 26 15 38 -7z m189 -64 c1 -56 -19 -72 -50 -39 -26 28 -24 35 7 28 22 -6 25 -4 24 16 -1 13 -1 37 0 53 1 26 3 27 10 10 5 -11 9 -42 9 -68z m-236 -43 c4 -27 12 -80 17 -119 6 -38 16 -103 23 -143 10 -51 10 -75 3 -80 -14 -8 -121 -6 -136 3 -7 4 -10 20 -6 39 9 50 24 146 36 221 21 140 48 174 63 79z m-315 -216 c2 -9 -4 -18 -13 -21 -11 -5 -15 0 -15 19 0 28 23 29 28 2z m62 2 c0 -11 -7 -20 -15 -20 -8 0 -15 9 -15 20 0 11 7 20 15 20 8 0 15 -9 15 -20z m490 -4 c0 -3 -4 -8 -10 -11 -5 -3 -10 -1 -10 4 0 6 5 11 10 11 6 0 10 -2 10 -4z m-460 -16 c0 -5 -2 -10 -4 -10 -3 0 -8 5 -11 10 -3 6 -1 10 4 10 6 0 11 -4 11 -10z m434 -5 c3 -9 0 -15 -9 -15 -7 0 -16 -9 -20 -19 -3 -11 -12 -22 -20 -25 -9 -3 -15 -18 -15 -36 0 -32 -6 -36 -29 -21 -11 7 -12 13 -4 23 6 7 14 24 18 38 9 30 44 70 61 70 6 0 14 -7 18 -15z m-504 -9 c0 -3 -4 -8 -10 -11 -5 -3 -10 -1 -10 4 0 6 5 11 10 11 6 0 10 -2 10 -4z m524 -108 c6 -69 -4 -143 -19 -143 -6 0 -11 32 -13 70 -6 128 21 189 32 73z m86 18 c0 -3 -4 -8 -10 -11 -5 -3 -10 -1 -10 4 0 6 5 11 10 11 6 0 10 -2 10 -4z m-133 -72 c-3 -3 -15 0 -26 8 -20 14 -20 16 -3 36 l17 22 9 -30 c5 -17 6 -33 3 -36z m-102 -44 c-3 -5 -10 -10 -16 -10 -5 0 -9 5 -9 10 0 6 7 10 16 10 8 0 12 -4 9 -10z m86 -53 c18 -5 29 -47 12 -47 -15 1 -46 30 -40 36 4 4 2 13 -4 20 -6 8 -7 19 -2 26 6 9 9 7 11 -8 2 -12 12 -24 23 -27z m109 25 c0 -13 -12 -22 -22 -16 -10 6 -1 24 13 24 5 0 9 -4 9 -8z m-152 -56 c3 -14 -2 -17 -29 -14 -38 4 -50 25 -17 31 33 6 43 3 46 -17z m-438 -8 c0 -7 -4 -19 -9 -26 -7 -11 -10 -10 -15 3 -10 26 -7 35 9 35 8 0 15 -6 15 -12z m490 -38 c0 -5 -2 -10 -4 -10 -3 0 -8 5 -11 10 -3 6 -1 10 4 10 6 0 11 -4 11 -10z m102 -52 c-9 -9 -12 -7 -12 12 0 19 3 21 12 12 9 -9 9 -15 0 -24z m-80 -50 c-6 -6 -15 -9 -18 -5 -4 3 -4 14 0 23 5 13 9 15 18 6 9 -9 9 -15 0 -24z"/>
<path d="M11867 7819 c-14 -8 -15 -14 -6 -30 6 -13 8 -37 3 -62 -4 -23 -7 -46 -6 -51 3 -11 3 -104 -1 -259 -2 -71 1 -130 5 -133 4 -3 4 -13 -2 -23 -5 -11 -8 -130 -7 -290 2 -150 -1 -275 -5 -277 -5 -3 -6 -14 -3 -25 9 -26 8 -504 0 -560 -5 -32 -3 -48 7 -55 8 -6 81 -8 193 -4 99 3 268 2 375 -3 107 -4 214 -5 236 -2 38 5 43 9 48 39 4 19 6 94 6 168 0 73 1 143 3 156 l2 23 -212 0 c-117 0 -217 -2 -222 -5 -30 -19 -32 27 -32 670 1 356 -2 665 -5 686 l-7 39 -167 -2 c-92 -1 -171 0 -176 4 -5 3 -17 1 -27 -4z m261 -206 c-4 -22 -22 -20 -26 1 -2 10 3 16 13 16 10 0 15 -7 13 -17z m32 -48 c0 -8 -4 -15 -10 -15 -5 0 -10 7 -10 15 0 8 5 15 10 15 6 0 10 -7 10 -15z m-120 -90 c0 -8 -4 -15 -10 -15 -5 0 -10 7 -10 15 0 8 5 15 10 15 6 0 10 -7 10 -15z m50 -1 c0 -8 -4 -12 -10 -9 -5 3 -10 10 -10 16 0 5 5 9 10 9 6 0 10 -7 10 -16z m-20 -39 c0 -8 -4 -15 -9 -15 -13 0 -22 16 -14 24 11 11 23 6 23 -9z m48 -152 c-2 -10 -11 -19 -21 -21 -16 -3 -17 -1 -5 17 16 25 31 27 26 4z m-160 -192 c3 -8 -1 -12 -9 -9 -7 2 -15 10 -17 17 -3 8 1 12 9 9 7 -2 15 -10 17 -17z m86 -308 c-12 -9 -21 -10 -28 -3 -14 14 11 31 32 22 12 -4 12 -7 -4 -19z m-74 -39 c0 -8 -5 -12 -10 -9 -6 4 -8 11 -5 16 9 14 15 11 15 -7z m110 -230 c0 -8 -5 -12 -10 -9 -6 4 -8 11 -5 16 9 14 15 11 15 -7z m100 7 c0 -12 -20 -25 -27 -18 -7 7 6 27 18 27 5 0 9 -4 9 -9z m-124 -98 c-10 -11 -26 18 -25 47 0 24 1 23 16 -7 9 -18 13 -36 9 -40z m94 47 c0 -5 -4 -10 -10 -10 -5 0 -10 5 -10 10 0 6 5 10 10 10 6 0 10 -4 10 -10z m-130 -49 c0 -5 -7 -11 -15 -15 -9 -3 -15 0 -15 9 0 8 7 15 15 15 8 0 15 -4 15 -9z m460 -15 c0 -3 -4 -8 -10 -11 -5 -3 -10 -1 -10 4 0 6 5 11 10 11 6 0 10 -2 10 -4z m-240 -66 c0 -5 -7 -10 -15 -10 -8 0 -15 5 -15 10 0 6 7 10 15 10 8 0 15 -4 15 -10z m290 -120 c0 -5 -4 -10 -10 -10 -5 0 -10 5 -10 10 0 6 5 10 10 10 6 0 10 -4 10 -10z m-390 -60 c0 -5 -4 -10 -10 -10 -5 0 -10 5 -10 10 0 6 5 10 10 10 6 0 10 -4 10 -10z m170 -16 c0 -9 -5 -14 -12 -12 -18 6 -21 28 -4 28 9 0 16 -7 16 -16z m230 6 c0 -5 -2 -10 -4 -10 -3 0 -8 5 -11 10 -3 6 -1 10 4 10 6 0 11 -4 11 -10z"/>
<path d="M8961 7714 c0 -11 3 -14 6 -6 3 7 2 16 -1 19 -3 4 -6 -2 -5 -13z"/>
<path d="M12637 5984 c-32 -10 -45 -19 -41 -27 64 -107 128 -187 171 -212 26 -16 59 -35 73 -44 24 -15 25 -15 10 4 -9 11 -32 39 -52 61 -39 46 -39 45 -63 157 -18 86 -18 86 -98 61z"/>
<path d="M3493 5835 c-36 -12 -77 -47 -143 -122 -25 -29 -69 -78 -98 -110 -39 -43 -52 -64 -50 -83 2 -19 9 -25 28 -25 16 0 26 -7 28 -19 3 -14 -2 -17 -25 -14 l-28 3 -2 -182 c-1 -100 -3 -197 -5 -216 -3 -30 5 -43 57 -102 33 -38 96 -105 140 -150 l80 -82 110 -2 c61 -1 117 -2 125 -1 8 0 55 1 104 2 l89 1 29 -34 c46 -54 59 -92 52 -152 -3 -29 -12 -61 -19 -72 -17 -27 -92 -50 -111 -34 -11 9 -45 10 -120 6 l-104 -7 -20 33 c-13 21 -20 50 -20 85 0 28 -3 52 -7 53 -5 0 -85 2 -179 5 -206 5 -208 4 -207 -82 0 -33 1 -66 2 -74 1 -8 0 -38 -3 -67 -5 -51 -5 -52 60 -127 36 -42 75 -91 87 -109 12 -18 37 -51 56 -75 l34 -42 338 0 337 0 44 52 c23 29 53 62 64 73 12 11 53 56 90 99 62 73 68 84 71 130 4 51 5 217 4 371 l-1 81 -70 99 c-38 55 -91 128 -117 162 l-48 62 -185 3 c-102 1 -205 1 -230 0 -42 -2 -49 1 -89 42 l-44 44 7 59 c4 32 7 68 8 80 0 13 7 22 17 23 109 6 253 19 279 25 29 6 38 3 63 -21 23 -22 29 -37 29 -68 0 -23 4 -46 8 -52 9 -15 346 -14 361 1 6 6 11 71 13 146 l3 136 -50 59 c-28 33 -73 87 -99 121 -27 34 -56 64 -65 67 -18 4 -263 9 -496 10 -82 1 -165 -4 -182 -9z m691 -161 c5 -13 9 -14 21 -4 24 20 31 2 11 -31 -12 -20 -15 -39 -11 -59 7 -32 -5 -39 -24 -16 -15 18 -26 126 -13 126 5 0 13 -7 16 -16z m-574 -34 c0 -5 -4 -10 -10 -10 -5 0 -10 5 -10 10 0 6 5 10 10 10 6 0 10 -4 10 -10z m150 -6 c0 -8 -5 -12 -10 -9 -6 4 -8 11 -5 16 9 14 15 11 15 -7z m310 -20 c0 -8 -4 -14 -10 -14 -5 0 -10 9 -10 21 0 11 5 17 10 14 6 -3 10 -13 10 -21z m-35 -4 c3 -5 -1 -10 -10 -10 -9 0 -13 5 -10 10 3 6 8 10 10 10 2 0 7 -4 10 -10z m-735 -31 c0 -5 -4 -9 -10 -9 -5 0 -10 7 -10 16 0 8 5 12 10 9 6 -3 10 -10 10 -16z m540 11 c0 -5 -4 -10 -10 -10 -5 0 -10 5 -10 10 0 6 5 10 10 10 6 0 10 -4 10 -10z m290 0 c0 -5 -4 -10 -10 -10 -5 0 -10 5 -10 10 0 6 5 10 10 10 6 0 10 -4 10 -10z m-535 -30 c19 -7 19 -8 -5 -18 -28 -11 -40 -7 -40 14 0 15 14 17 45 4z m560 -10 c4 -6 4 -18 1 -27 -5 -12 -9 -13 -21 -3 -8 7 -15 19 -15 26 0 16 26 19 35 4z m85 -11 c0 -11 -4 -17 -10 -14 -5 3 -10 13 -10 21 0 8 5 14 10 14 6 0 10 -9 10 -21z m-530 -9 c0 -5 -4 -10 -10 -10 -5 0 -10 5 -10 10 0 6 5 10 10 10 6 0 10 -4 10 -10z m-350 -30 c0 -5 -12 -10 -26 -10 -14 0 -23 4 -19 10 3 6 15 10 26 10 10 0 19 -4 19 -10z m44 4 c18 -7 21 -30 5 -40 -12 -7 -29 12 -29 34 0 14 2 14 24 6z m826 -3 c0 -12 -20 -25 -27 -18 -7 7 6 27 18 27 5 0 9 -4 9 -9z m47 -55 c-4 -9 -11 -16 -17 -16 -11 0 -14 53 -3 64 11 10 27 -30 20 -48z m-147 4 c0 -5 -4 -10 -10 -10 -5 0 -10 5 -10 10 0 6 5 10 10 10 6 0 10 -4 10 -10z m47 -32 c-3 -8 -6 -5 -6 6 -1 11 2 17 5 13 3 -3 4 -12 1 -19z m-714 -54 c-9 -23 -23 -16 -23 12 0 22 2 24 14 14 8 -6 12 -18 9 -26z m-53 -154 c0 -5 -2 -10 -4 -10 -3 0 -8 5 -11 10 -3 6 -1 10 4 10 6 0 11 -4 11 -10z m20 -160 c0 -5 -7 -10 -15 -10 -8 0 -15 5 -15 10 0 6 7 10 15 10 8 0 15 -4 15 -10z m159 -69 c-15 -5 -22 6 -14 19 6 9 10 9 16 -1 5 -8 4 -15 -2 -18z m21 -46 c0 -8 -4 -15 -9 -15 -13 0 -22 16 -14 24 11 11 23 6 23 -9z m660 -355 c0 -5 -2 -10 -4 -10 -3 0 -8 5 -11 10 -3 6 -1 10 4 10 6 0 11 -4 11 -10z m-70 -34 c0 -18 -16 -29 -30 -21 -13 8 -1 35 16 35 8 0 14 -6 14 -14z m40 -106 c0 -5 -2 -10 -4 -10 -3 0 -8 5 -11 10 -3 6 -1 10 4 10 6 0 11 -4 11 -10z m-562 -221 c-2 -6 -8 -10 -13 -10 -5 0 -11 4 -13 10 -2 6 4 11 13 11 9 0 15 -5 13 -11z"/>
<path d="M4468 5828 c-3 -7 0 -40 7 -73 7 -33 10 -64 7 -69 -3 -5 -7 -38 -8 -74 -3 -48 0 -70 11 -82 15 -16 11 -56 -10 -127 -10 -31 18 -36 180 -31 115 3 136 1 140 -12 4 -13 5 -199 4 -920 0 -19 0 -119 0 -222 l0 -187 33 -6 c18 -3 119 -5 223 -3 l190 3 7 70 c3 39 6 342 6 675 l-1 605 44 7 c24 3 60 2 79 -4 19 -5 69 -8 110 -6 l75 3 0 224 1 223 -24 9 c-16 6 -32 4 -50 -5 -21 -11 -32 -12 -47 -3 -13 8 -72 11 -170 10 -189 -3 -148 -3 -501 3 -245 5 -302 3 -306 -8z m740 -40 c-6 -18 -28 -21 -28 -4 0 9 7 16 16 16 9 0 14 -5 12 -12z m-428 -102 c0 -8 -4 -18 -10 -21 -5 -3 -10 3 -10 14 0 12 5 21 10 21 6 0 10 -6 10 -14z m610 0 c0 -3 -4 -8 -10 -11 -5 -3 -10 -1 -10 4 0 6 5 11 10 11 6 0 10 -2 10 -4z m-170 -15 c0 -5 -7 -14 -15 -21 -13 -10 -15 -9 -15 9 0 12 6 21 15 21 8 0 15 -4 15 -9z m-380 -42 c0 -20 -15 -26 -25 -9 -9 15 3 43 15 35 5 -3 10 -15 10 -26z m-152 -25 c-10 -10 -28 6 -28 24 0 15 1 15 17 -1 9 -9 14 -19 11 -23z m37 -4 c3 -5 1 -10 -4 -10 -6 0 -11 5 -11 10 0 6 2 10 4 10 3 0 8 -4 11 -10z m522 -12 c-3 -8 -6 -5 -6 6 -1 11 2 17 5 13 3 -3 4 -12 1 -19z m263 -8 c0 -5 -4 -10 -10 -10 -5 0 -10 5 -10 10 0 6 5 10 10 10 6 0 10 -4 10 -10z m-862 -92 c-3 -7 -12 -14 -21 -16 -12 -2 -15 1 -11 12 7 19 38 22 32 4z m422 -78 c0 -5 -6 -10 -14 -10 -8 0 -18 5 -21 10 -3 6 3 10 14 10 12 0 21 -4 21 -10z m-6 -59 c3 -5 -1 -11 -9 -15 -15 -6 -29 7 -18 18 9 9 21 8 27 -3z m56 -37 c0 -8 -5 -12 -10 -9 -6 4 -8 11 -5 16 9 14 15 11 15 -7z m-220 -234 c0 -5 -2 -10 -4 -10 -3 0 -8 5 -11 10 -3 6 -1 10 4 10 6 0 11 -4 11 -10z m-10 -290 c0 -5 -5 -10 -11 -10 -5 0 -7 5 -4 10 3 6 8 10 11 10 2 0 4 -4 4 -10z m20 -70 c0 -5 -4 -10 -10 -10 -5 0 -10 5 -10 10 0 6 5 10 10 10 6 0 10 -4 10 -10z m318 -223 c2 -10 -3 -17 -12 -17 -10 0 -16 9 -16 21 0 24 23 21 28 -4z m-98 -27 c0 -5 -4 -10 -10 -10 -5 0 -10 5 -10 10 0 6 5 10 10 10 6 0 10 -4 10 -10z m-89 -130 c0 -66 -3 -76 -20 -65 -12 7 -15 127 -4 139 15 15 25 -15 24 -74z"/>
<path d="M8375 5833 c-11 -3 -23 -10 -27 -17 -4 -6 -5 -130 -1 -276 3 -146 6 -272 5 -280 -2 -156 -7 -674 -6 -700 1 -19 1 -91 1 -160 -1 -69 0 -145 1 -170 1 -25 1 -76 1 -113 -1 -38 2 -71 4 -74 10 -10 142 -11 154 -2 7 7 32 6 70 0 65 -12 635 -12 654 0 13 7 14 25 10 134 -1 39 0 96 3 128 9 108 26 102 -257 103 -134 1 -250 5 -256 8 -6 4 -11 18 -11 31 0 13 -5 27 -10 30 -8 5 -8 11 -1 19 6 7 12 65 13 129 l3 118 210 2 210 2 2 185 c1 102 0 193 -3 202 -5 16 -20 17 -167 12 -139 -5 -165 -8 -189 -25 -22 -16 -28 -17 -28 -6 0 8 -9 17 -20 20 -18 5 -20 14 -21 89 0 45 -1 101 -3 123 -1 22 2 48 6 58 9 17 36 18 253 7 6 -1 66 2 135 6 125 6 156 15 146 41 -3 8 -6 94 -7 193 -1 123 -5 180 -13 183 -6 2 -49 2 -96 0 -47 -2 -164 -5 -260 -6 -96 -1 -180 -5 -186 -9 -5 -4 -28 -3 -50 3 -46 11 -240 20 -269 12z m65 -113 c0 -5 -5 -10 -11 -10 -5 0 -7 5 -4 10 3 6 8 10 11 10 2 0 4 -4 4 -10z m420 -21 c0 -5 -4 -9 -10 -9 -5 0 -10 7 -10 16 0 8 5 12 10 9 6 -3 10 -10 10 -16z m230 6 c0 -8 -4 -15 -10 -15 -5 0 -10 7 -10 15 0 8 5 15 10 15 6 0 10 -7 10 -15z m-486 -44 c3 -5 -1 -14 -10 -21 -11 -10 -18 -10 -27 -1 -9 9 -9 14 3 21 19 12 27 12 34 1z m-184 -22 c0 -11 -4 -17 -10 -14 -5 3 -10 13 -10 21 0 8 5 14 10 14 6 0 10 -9 10 -21z m308 -16 c-4 -22 -22 -20 -26 1 -2 10 3 16 13 16 10 0 15 -7 13 -17z m317 -13 c-3 -5 -13 -10 -21 -10 -8 0 -12 5 -9 10 3 6 13 10 21 10 8 0 12 -4 9 -10z m-50 -20 c0 -7 -6 -15 -12 -17 -8 -3 -13 4 -13 17 0 13 5 20 13 18 6 -3 12 -11 12 -18z m-435 -5 c0 -8 -4 -15 -10 -15 -5 0 -10 7 -10 15 0 8 5 15 10 15 6 0 10 -7 10 -15z m60 -11 c0 -8 -4 -14 -10 -14 -5 0 -10 9 -10 21 0 11 5 17 10 14 6 -3 10 -13 10 -21z m300 10 c0 -8 -5 -12 -10 -9 -6 4 -8 11 -5 16 9 14 15 11 15 -7z m-443 -26 c-3 -8 -6 -5 -6 6 -1 11 2 17 5 13 3 -3 4 -12 1 -19z m223 13 c0 -12 -20 -25 -27 -18 -7 7 6 27 18 27 5 0 9 -4 9 -9z m-60 -31 c0 -5 -7 -10 -15 -10 -8 0 -15 5 -15 10 0 6 7 10 15 10 8 0 15 -4 15 -10z m248 -33 c2 -10 -3 -17 -12 -17 -10 0 -16 9 -16 21 0 24 23 21 28 -4z m-498 -17 c0 -5 -4 -10 -10 -10 -5 0 -10 5 -10 10 0 6 5 10 10 10 6 0 10 -4 10 -10z m290 -30 c0 -5 -2 -10 -4 -10 -3 0 -8 5 -11 10 -3 6 -1 10 4 10 6 0 11 -4 11 -10z m-36 -19 c3 -5 0 -11 -8 -14 -15 -6 -26 1 -26 15 0 11 27 10 34 -1z m-94 -51 c0 -5 -4 -10 -10 -10 -5 0 -10 5 -10 10 0 6 5 10 10 10 6 0 10 -4 10 -10z m100 -9 c0 -6 -4 -13 -10 -16 -5 -3 -10 1 -10 9 0 9 5 16 10 16 6 0 10 -4 10 -9z m-60 -26 c0 -8 -4 -15 -10 -15 -5 0 -10 7 -10 15 0 8 5 15 10 15 6 0 10 -7 10 -15z m-40 -5 c0 -5 -4 -10 -10 -10 -5 0 -10 5 -10 10 0 6 5 10 10 10 6 0 10 -4 10 -10z m-120 -40 c0 -5 -5 -10 -11 -10 -5 0 -7 5 -4 10 3 6 8 10 11 10 2 0 4 -4 4 -10z m110 -91 c0 -14 -17 -10 -23 5 -4 10 -1 13 9 9 7 -3 14 -9 14 -14z m8 -48 c3 -8 -1 -12 -9 -9 -7 2 -15 10 -17 17 -3 8 1 12 9 9 7 -2 15 -10 17 -17z m127 -30 c7 -12 -12 -24 -25 -16 -11 7 -4 25 10 25 5 0 11 -4 15 -9z m-160 -90 c3 -5 2 -12 -3 -15 -12 -7 -52 4 -52 15 0 12 47 12 55 0z m225 -47 c0 -8 -4 -12 -10 -9 -5 3 -10 10 -10 16 0 5 5 9 10 9 6 0 10 -7 10 -16z m-80 -34 c0 -5 -4 -10 -10 -10 -5 0 -10 5 -10 10 0 6 5 10 10 10 6 0 10 -4 10 -10z m270 -39 c0 -10 -7 -24 -15 -31 -12 -10 -15 -10 -15 3 0 23 11 47 21 47 5 0 9 -8 9 -19z m-125 -10 c7 -12 -12 -24 -25 -16 -11 7 -4 25 10 25 5 0 11 -4 15 -9z m-345 -26 c0 -8 -4 -15 -10 -15 -5 0 -10 7 -10 15 0 8 5 15 10 15 6 0 10 -7 10 -15z m100 11 c0 -11 -19 -15 -25 -6 -3 5 1 10 9 10 9 0 16 -2 16 -4z m370 -52 c0 -10 -7 -14 -22 -12 -32 5 -35 28 -4 28 17 0 26 -5 26 -16z m-390 -85 c0 -6 -4 -7 -10 -4 -5 3 -10 11 -10 16 0 6 5 7 10 4 6 -3 10 -11 10 -16z m46 -5 c-3 -9 -6 -20 -6 -25 0 -5 -4 -9 -10 -9 -5 0 -10 11 -10 25 0 16 6 25 16 25 11 0 14 -5 10 -16z m-10 -110 c12 -26 16 -44 10 -44 -29 1 -72 60 -62 86 9 22 30 6 52 -42z m59 -44 c3 -5 -1 -10 -10 -10 -9 0 -13 5 -10 10 3 6 8 10 10 10 2 0 7 -4 10 -10z m45 -11 c0 -5 -4 -9 -10 -9 -5 0 -10 7 -10 16 0 8 5 12 10 9 6 -3 10 -10 10 -16z m-46 -64 c-6 -16 -24 -21 -24 -7 0 11 11 22 21 22 5 0 6 -7 3 -15z m-114 -125 c0 -5 -2 -10 -4 -10 -3 0 -8 5 -11 10 -3 6 -1 10 4 10 6 0 11 -4 11 -10z m210 -90 c0 -21 -15 -27 -25 -10 -7 12 2 30 16 30 5 0 9 -9 9 -20z m280 16 c0 -3 -4 -8 -10 -11 -5 -3 -10 -1 -10 4 0 6 5 11 10 11 6 0 10 -2 10 -4z m-370 -36 c0 -11 0 -23 1 -27 0 -4 -4 -9 -10 -11 -6 -2 -11 10 -11 27 0 17 5 31 10 31 6 0 10 -9 10 -20z m308 -8 c2 -7 -3 -12 -12 -12 -9 0 -16 7 -16 16 0 17 22 14 28 -4z m-398 -2 c0 -5 -4 -10 -10 -10 -5 0 -10 5 -10 10 0 6 5 10 10 10 6 0 10 -4 10 -10z m200 -30 c0 -5 -5 -10 -11 -10 -5 0 -7 5 -4 10 3 6 8 10 11 10 2 0 4 -4 4 -10z m278 -51 c-1 -13 -7 -23 -13 -22 -13 3 -18 30 -11 50 10 24 29 1 24 -28z m-158 1 c0 -5 -4 -10 -9 -10 -6 0 -13 5 -16 10 -3 6 1 10 9 10 9 0 16 -4 16 -10z m70 -10 c0 -5 -4 -10 -10 -10 -5 0 -10 5 -10 10 0 6 5 10 10 10 6 0 10 -4 10 -10z m-340 -37 c0 -7 -4 -13 -10 -13 -5 0 -10 12 -10 28 0 21 2 24 10 12 5 -8 10 -21 10 -27z m490 1 c0 -8 -5 -12 -10 -9 -6 4 -8 11 -5 16 9 14 15 11 15 -7z m-115 -44 c3 -5 1 -10 -4 -10 -6 0 -11 5 -11 10 0 6 2 10 4 10 3 0 8 -4 11 -10z"/>
<path d="M10533 5157 c1 -377 4 -688 7 -690 3 -3 53 -7 113 -8 l107 -4 70 80 c55 63 70 87 70 112 0 28 4 33 34 38 27 5 50 26 112 97 44 50 81 95 84 99 3 4 66 15 140 24 179 21 172 18 203 68 16 25 42 57 58 73 l29 28 0 229 0 230 -47 54 c-25 30 -53 69 -62 87 -17 32 -23 40 -88 113 l-38 42 -397 6 -396 7 1 -685z m227 523 c0 -5 -4 -10 -10 -10 -5 0 -10 5 -10 10 0 6 5 10 10 10 6 0 10 -4 10 -10z m35 -19 c3 -5 1 -12 -5 -16 -5 -3 -10 1 -10 9 0 18 6 21 15 7z m345 -1 c0 -5 -5 -10 -11 -10 -5 0 -7 5 -4 10 3 6 8 10 11 10 2 0 4 -4 4 -10z m130 0 c0 -5 -9 -10 -21 -10 -11 0 -17 5 -14 10 3 6 13 10 21 10 8 0 14 -4 14 -10z m-235 -10 c3 -5 1 -10 -4 -10 -6 0 -11 5 -11 10 0 6 2 10 4 10 3 0 8 -4 11 -10z m-169 -15 c9 -8 25 -15 36 -15 17 0 18 -2 8 -15 -7 -8 -21 -15 -31 -15 -11 0 -19 -7 -19 -15 0 -8 -4 -15 -10 -15 -5 0 -10 -7 -10 -15 0 -23 -14 -18 -27 11 -7 16 -9 32 -3 42 5 10 11 25 14 35 7 21 23 22 42 2z m394 -25 c0 -5 -4 -10 -10 -10 -5 0 -10 5 -10 10 0 6 5 10 10 10 6 0 10 -4 10 -10z m-590 -46 c0 -8 -4 -14 -10 -14 -5 0 -10 9 -10 21 0 11 5 17 10 14 6 -3 10 -13 10 -21z m597 -6 c-3 -8 -6 -5 -6 6 -1 11 2 17 5 13 3 -3 4 -12 1 -19z m-555 -46 c-19 -6 -44 6 -37 18 4 7 14 6 28 -2 14 -7 17 -13 9 -16z m425 -99 c25 -34 41 -51 53 -55 10 -3 10 -9 1 -25 -6 -12 -11 -50 -11 -85 0 -54 -4 -69 -32 -109 l-31 -46 -101 -6 c-56 -3 -103 -3 -106 0 -5 5 0 334 5 343 2 3 49 4 106 3 87 -1 105 -4 116 -20z m-471 -110 c-10 -10 -19 5 -10 18 6 11 8 11 12 0 2 -7 1 -15 -2 -18z m689 7 c3 -5 -1 -10 -10 -10 -9 0 -13 5 -10 10 3 6 8 10 10 10 2 0 7 -4 10 -10z m-15 -65 c0 -8 -4 -15 -10 -15 -5 0 -10 7 -10 15 0 8 5 15 10 15 6 0 10 -7 10 -15z m-10 -50 c0 -8 -4 -15 -9 -15 -13 0 -22 16 -14 24 11 11 23 6 23 -9z m-640 -75 c0 -5 -2 -10 -4 -10 -3 0 -8 5 -11 10 -3 6 -1 10 4 10 6 0 11 -4 11 -10z m80 -176 c0 -8 -4 -14 -10 -14 -5 0 -10 9 -10 21 0 11 5 17 10 14 6 -3 10 -13 10 -21z m310 -69 c0 -8 -4 -15 -10 -15 -5 0 -10 7 -10 15 0 8 5 15 10 15 6 0 10 -7 10 -15z m-190 -131 c0 -8 -5 -12 -10 -9 -6 4 -8 11 -5 16 9 14 15 11 15 -7z"/>
<path d="M11733 5830 c-26 -11 -25 6 -22 -245 1 -104 2 -288 2 -408 l-1 -218 37 5 c20 3 58 9 86 12 43 6 60 16 123 73 40 36 69 67 63 69 -17 6 -13 32 4 32 8 0 15 -5 15 -12 0 -6 12 -1 26 13 26 24 26 25 20 134 -3 61 -2 115 2 122 6 10 89 19 117 12 6 -1 35 -3 65 -5 30 -1 62 -3 70 -4 27 -1 255 11 266 15 13 4 15 268 2 280 -3 4 -71 -3 -150 -16 l-143 -22 -150 -78 c-132 -69 -153 -77 -172 -66 -76 43 -134 80 -130 84 3 2 26 -1 51 -8 26 -6 49 -9 53 -6 3 3 12 0 20 -8 12 -12 18 -12 48 2 19 9 31 21 28 28 -6 17 17 31 27 15 10 -17 123 47 116 66 -3 7 -1 16 4 19 6 4 10 -1 10 -9 0 -20 4 -20 43 1 18 9 101 31 186 49 159 34 183 43 163 67 -9 10 -33 13 -99 10 -49 -2 -169 -5 -268 -6 -99 -1 -186 -6 -194 -11 -7 -5 -16 -5 -20 0 -7 10 -15 11 -171 18 -58 3 -115 1 -127 -4z m77 -110 c0 -5 -4 -10 -10 -10 -5 0 -10 5 -10 10 0 6 5 10 10 10 6 0 10 -4 10 -10z m152 -82 c-9 -9 -15 -9 -24 0 -10 10 -10 15 2 22 20 12 38 -6 22 -22z m-172 1 c0 -18 -2 -19 -15 -9 -8 7 -15 16 -15 21 0 5 7 9 15 9 9 0 15 -9 15 -21z m620 -29 c0 -5 -7 -10 -16 -10 -8 0 -12 5 -9 10 3 6 10 10 16 10 5 0 9 -4 9 -10z m-47 -14 c6 -15 -1 -26 -15 -26 -4 0 -8 9 -8 20 0 23 15 27 23 6z m-73 -11 c0 -8 -4 -15 -10 -15 -5 0 -10 7 -10 15 0 8 5 15 10 15 6 0 10 -7 10 -15z m-440 -21 c0 -8 -4 -12 -10 -9 -5 3 -10 10 -10 16 0 5 5 9 10 9 6 0 10 -7 10 -16z m404 -50 c8 -21 1 -28 -18 -21 -9 4 -13 13 -10 22 8 20 20 19 28 -1z m-494 -18 c0 -3 -4 -8 -10 -11 -5 -3 -10 -1 -10 4 0 6 5 11 10 11 6 0 10 -2 10 -4z m290 -37 c0 -14 -17 -10 -23 5 -4 10 -1 13 9 9 7 -3 14 -9 14 -14z m-40 -20 c0 -11 -27 -12 -34 0 -3 4 -3 11 0 14 8 8 34 -3 34 -14z m-230 -19 c0 -5 -4 -10 -10 -10 -5 0 -10 5 -10 10 0 6 5 10 10 10 6 0 10 -4 10 -10z m135 -29 c3 -5 1 -12 -5 -16 -5 -3 -10 1 -10 9 0 18 6 21 15 7z m95 -17 c0 -8 -4 -12 -10 -9 -5 3 -10 10 -10 16 0 5 5 9 10 9 6 0 10 -7 10 -16z m-50 -25 c0 -5 -4 -9 -10 -9 -5 0 -10 7 -10 16 0 8 5 12 10 9 6 -3 10 -10 10 -16z m-165 -39 c3 -5 -1 -10 -10 -10 -9 0 -13 5 -10 10 3 6 8 10 10 10 2 0 7 -4 10 -10z m115 -90 c0 -5 -4 -10 -10 -10 -5 0 -10 5 -10 10 0 6 5 10 10 10 6 0 10 -4 10 -10z m0 -51 c0 -11 -4 -17 -10 -14 -5 3 -10 13 -10 21 0 8 5 14 10 14 6 0 10 -9 10 -21z m-30 -124 c0 -19 -21 -19 -46 0 -18 14 -17 14 14 15 22 0 32 -5 32 -15z"/>
<path d="M15260 5831 l-25 -7 -2 -144 c-1 -80 2 -210 5 -288 4 -79 4 -145 1 -147 -3 -2 -6 -114 -7 -249 l-1 -246 41 -21 c33 -17 42 -18 50 -7 8 10 9 9 5 -4 -4 -11 2 -19 21 -26 15 -6 34 -13 43 -17 11 -4 18 0 22 15 7 28 23 18 41 -25 10 -23 24 -36 49 -44 19 -7 39 -10 43 -9 5 2 20 -8 34 -22 l25 -25 3 90 3 90 209 -1 c116 -1 212 1 215 5 2 4 1 41 -3 82 -4 40 -5 121 -2 179 3 58 2 113 -2 122 -7 16 -24 17 -166 12 -135 -4 -161 -7 -184 -24 -22 -16 -27 -17 -32 -5 -3 8 -12 15 -21 15 -12 0 -15 15 -16 83 0 45 -2 105 -5 132 -2 28 0 55 4 62 6 10 89 19 117 12 6 -1 35 -3 65 -5 30 -1 62 -3 70 -4 45 -3 266 13 274 20 4 5 7 68 5 142 -2 73 -3 158 -4 188 0 30 -3 60 -7 66 -5 7 -40 9 -100 7 -51 -2 -172 -5 -268 -6 -96 -1 -180 -5 -186 -9 -6 -4 -26 -3 -45 3 -43 12 -236 20 -269 10z m70 -111 c0 -5 -4 -10 -10 -10 -5 0 -10 5 -10 10 0 6 5 10 10 10 6 0 10 -4 10 -10z m412 -32 c-9 -9 -12 -7 -12 12 0 19 3 21 12 12 9 -9 9 -15 0 -24z m225 10 c-3 -8 -6 -5 -6 6 -1 11 2 17 5 13 3 -3 4 -12 1 -19z m-485 -60 c-9 -9 -15 -9 -24 0 -10 10 -10 15 2 22 20 12 38 -6 22 -22z m-172 1 c0 -11 -4 -17 -10 -14 -5 3 -10 13 -10 21 0 8 5 14 10 14 6 0 10 -9 10 -21z m306 -10 c3 -6 1 -16 -5 -22 -9 -9 -14 -8 -21 3 -9 15 -4 30 10 30 5 0 12 -5 16 -11z m314 -19 c0 -5 -7 -10 -16 -10 -8 0 -12 5 -9 10 3 6 10 10 16 10 5 0 9 -4 9 -10z m-45 -20 c0 -7 -6 -15 -12 -17 -8 -3 -13 4 -13 17 0 13 5 20 13 18 6 -3 12 -11 12 -18z m-440 1 c3 -5 1 -12 -5 -16 -5 -3 -10 1 -10 9 0 18 6 21 15 7z m57 -23 c-9 -9 -12 -7 -12 12 0 19 3 21 12 12 9 -9 9 -15 0 -24z m304 5 c-10 -10 -19 5 -10 18 6 11 8 11 12 0 2 -7 1 -15 -2 -18z m-436 -9 c0 -8 -5 -12 -10 -9 -6 4 -8 11 -5 16 9 14 15 11 15 -7z m218 4 c-3 -7 -13 -15 -24 -17 -16 -3 -17 -1 -5 13 16 19 34 21 29 4z m-68 -28 c0 -5 -4 -10 -10 -10 -5 0 -10 5 -10 10 0 6 5 10 10 10 6 0 10 -4 10 -10z m258 -33 c2 -10 -3 -17 -12 -17 -10 0 -16 9 -16 21 0 24 23 21 28 -4z m-498 -11 c0 -3 -4 -8 -10 -11 -5 -3 -10 -1 -10 4 0 6 5 11 10 11 6 0 10 -2 10 -4z m290 -36 c0 -5 -4 -10 -10 -10 -5 0 -10 5 -10 10 0 6 5 10 10 10 6 0 10 -4 10 -10z m-40 -21 c0 -5 -7 -9 -15 -9 -8 0 -15 7 -15 15 0 9 6 12 15 9 8 -4 15 -10 15 -15z m-230 -19 c0 -5 -2 -10 -4 -10 -3 0 -8 5 -11 10 -3 6 -1 10 4 10 6 0 11 -4 11 -10z m140 -30 c0 -5 -4 -10 -10 -10 -5 0 -10 5 -10 10 0 6 5 10 10 10 6 0 10 -4 10 -10z m94 -21 c-3 -5 -10 -7 -15 -3 -5 3 -7 10 -3 15 3 5 10 7 15 3 5 -3 7 -10 3 -15z m-54 -20 c0 -5 -4 -9 -10 -9 -5 0 -10 7 -10 16 0 8 5 12 10 9 6 -3 10 -10 10 -16z m-165 -39 c3 -5 1 -10 -4 -10 -6 0 -11 5 -11 10 0 6 2 10 4 10 3 0 8 -4 11 -10z m55 -74 c0 -3 -4 -8 -10 -11 -5 -3 -10 -1 -10 4 0 6 5 11 10 11 6 0 10 -2 10 -4z m50 -6 c8 -5 11 -12 8 -16 -4 -3 -14 1 -23 10 -18 17 -9 21 15 6z m15 -58 c0 -18 -20 -15 -23 4 -3 10 1 15 10 12 7 -3 13 -10 13 -16z m125 -37 c0 -8 -4 -15 -9 -15 -13 0 -22 16 -14 24 11 11 23 6 23 -9z m-157 -90 c-3 -17 -27 -17 -48 0 -19 15 -18 15 15 13 19 -2 34 -7 33 -13z m227 -40 c0 -8 -4 -15 -10 -15 -5 0 -10 7 -10 15 0 8 5 15 10 15 6 0 10 -7 10 -15z m-85 -35 c3 -5 1 -10 -4 -10 -6 0 -11 5 -11 10 0 6 2 10 4 10 3 0 8 -4 11 -10z m275 -33 c0 -7 -6 -21 -13 -32 -18 -24 -32 -3 -17 25 12 23 30 27 30 7z m-130 -15 c0 -13 -12 -22 -22 -16 -10 6 -1 24 13 24 5 0 9 -4 9 -8z m-340 -27 c0 -8 -4 -15 -10 -15 -5 0 -10 7 -10 15 0 8 5 15 10 15 6 0 10 -7 10 -15z m90 5 c0 -5 -4 -10 -10 -10 -5 0 -10 5 -10 10 0 6 5 10 10 10 6 0 10 -4 10 -10z m378 -48 c3 -9 -3 -13 -19 -10 -12 1 -24 9 -27 16 -3 9 3 13 19 10 12 -1 24 -9 27 -16z m-393 -71 c3 -5 1 -12 -4 -15 -5 -3 -11 1 -15 9 -6 16 9 21 19 6z m-55 -11 c0 -5 -4 -10 -10 -10 -5 0 -10 5 -10 10 0 6 5 10 10 10 6 0 10 -4 10 -10z m100 -9 c0 -11 -4 -23 -10 -26 -6 -4 -10 5 -10 19 0 14 5 26 10 26 6 0 10 -9 10 -19z"/>
<path d="M16220 5003 c-1 -461 -2 -865 -3 -898 l-2 -59 39 -8 c22 -5 105 -7 185 -6 l146 3 3 322 2 322 38 6 c20 3 46 8 58 10 12 3 24 1 28 -3 4 -4 12 -8 17 -8 5 -1 13 -2 18 -3 5 0 26 -27 47 -58 22 -32 42 -60 45 -63 32 -26 42 -105 43 -330 l1 -185 60 -8 c33 -4 121 -9 195 -10 l135 -2 7 65 c4 36 7 169 5 296 l-2 230 -28 40 c-15 21 -39 55 -52 74 -13 19 -33 44 -43 55 -31 34 -62 82 -62 99 0 8 8 23 18 33 10 10 30 36 45 59 15 22 41 53 57 69 l30 29 0 227 0 226 -51 64 c-28 35 -58 78 -67 94 -8 17 -23 36 -33 43 -11 7 -19 19 -19 26 0 6 -15 26 -32 43 l-33 31 -397 7 -397 7 -1 -839z m260 651 c0 -8 -5 -12 -10 -9 -6 4 -8 11 -5 16 9 14 15 11 15 -7z m480 6 c0 -5 -9 -10 -21 -10 -11 0 -17 5 -14 10 3 6 13 10 21 10 8 0 14 -4 14 -10z m-410 -20 c0 -5 15 -14 33 -19 l32 -9 -32 -13 c-18 -7 -33 -19 -33 -26 0 -7 -4 -13 -10 -13 -5 0 -10 -7 -10 -15 0 -24 -16 -18 -29 11 -9 20 -9 30 0 40 7 8 9 17 6 21 -9 9 12 33 29 33 8 0 14 -4 14 -10z m400 -30 c0 -5 -4 -10 -10 -10 -5 0 -10 5 -10 10 0 6 5 10 10 10 6 0 10 -4 10 -10z m-590 -46 c0 -8 -4 -14 -10 -14 -5 0 -10 9 -10 21 0 11 5 17 10 14 6 -3 10 -13 10 -21z m597 -6 c-3 -8 -6 -5 -6 6 -1 11 2 17 5 13 3 -3 4 -12 1 -19z m-555 -46 c-19 -6 -44 6 -37 18 4 7 14 6 28 -2 14 -7 17 -13 9 -16z m406 -87 c9 -3 25 -18 34 -35 9 -16 25 -30 34 -30 12 0 14 -5 8 -17 -4 -10 -10 -52 -13 -93 -5 -62 -11 -82 -36 -116 l-29 -41 -101 -6 c-55 -3 -102 -3 -105 0 -5 5 0 334 5 343 4 6 181 3 203 -5z m-448 -115 c0 -5 -4 -10 -10 -10 -5 0 -10 5 -10 10 0 6 5 10 10 10 6 0 10 -4 10 -10z m685 0 c3 -5 -1 -10 -10 -10 -9 0 -13 5 -10 10 3 6 8 10 10 10 2 0 7 -4 10 -10z m-15 -65 c0 -8 -4 -15 -10 -15 -5 0 -10 7 -10 15 0 8 5 15 10 15 6 0 10 -7 10 -15z m-10 -50 c0 -8 -4 -15 -9 -15 -13 0 -22 16 -14 24 11 11 23 6 23 -9z m-640 -69 c0 -3 -4 -8 -10 -11 -5 -3 -10 -1 -10 4 0 6 5 11 10 11 6 0 10 -2 10 -4z m80 -182 c0 -8 -4 -14 -10 -14 -5 0 -10 9 -10 21 0 11 5 17 10 14 6 -3 10 -13 10 -21z m310 -69 c0 -8 -4 -15 -10 -15 -5 0 -10 7 -10 15 0 8 5 15 10 15 6 0 10 -7 10 -15z m-190 -130 c0 -8 -4 -15 -10 -15 -5 0 -10 7 -10 15 0 8 5 15 10 15 6 0 10 -7 10 -15z m490 -5 c0 -5 -4 -10 -10 -10 -5 0 -10 5 -10 10 0 6 5 10 10 10 6 0 10 -4 10 -10z m-60 -300 c0 -5 -4 -10 -10 -10 -5 0 -10 5 -10 10 0 6 5 10 10 10 6 0 10 -4 10 -10z"/>
<path d="M9338 5825 c-3 -3 -2 -22 4 -42 7 -25 6 -44 -2 -64 -7 -16 -10 -46 -6 -71 10 -67 14 -162 8 -172 -3 -5 -4 -55 -3 -110 1 -56 2 -128 1 -161 -1 -34 4 -73 10 -89 8 -21 7 -32 -4 -48 -11 -16 -12 -26 -5 -40 7 -12 7 -24 1 -31 -10 -13 -13 -955 -3 -962 4 -2 207 -6 452 -10 l445 -7 62 87 c34 47 62 91 62 96 0 4 11 16 24 24 23 15 83 131 73 141 -3 3 -38 9 -78 13 -87 9 -117 0 -121 -38 -3 -29 -34 -37 -31 -8 0 10 -4 16 -10 14 -7 -3 -104 -46 -217 -97 -296 -133 -304 -135 -155 -45 57 34 95 64 95 74 0 11 3 12 8 4 9 -14 245 130 251 153 2 12 5 13 10 5 5 -8 15 -6 33 9 22 17 41 20 123 20 l96 0 -6 44 c-4 24 -8 92 -9 152 l-2 109 -45 65 c-25 36 -57 78 -72 94 -34 36 -34 63 -2 110 14 20 36 52 50 72 27 39 32 83 13 102 -9 9 -9 15 0 24 8 8 12 55 12 146 l0 135 -52 71 c-29 39 -59 78 -69 88 -9 9 -38 44 -64 77 l-47 60 -207 2 c-113 1 -228 2 -256 2 -27 1 -68 0 -90 -2 -22 -1 -92 1 -155 4 -63 4 -118 4 -122 0z m712 -145 c0 -5 -2 -10 -4 -10 -3 0 -8 5 -11 10 -3 6 -1 10 4 10 6 0 11 -4 11 -10z m70 -70 c0 -5 -2 -10 -4 -10 -3 0 -8 5 -11 10 -3 6 -1 10 4 10 6 0 11 -4 11 -10z m-110 -43 c0 -7 -7 -21 -15 -31 -24 -31 -42 -5 -20 28 17 25 35 27 35 3z m-190 3 c0 -5 -4 -10 -10 -10 -5 0 -10 5 -10 10 0 6 5 10 10 10 6 0 10 -4 10 -10z m-309 -37 c12 3 19 0 19 -9 0 -23 -36 -16 -48 10 -6 13 -8 27 -4 31 4 4 8 -3 10 -15 3 -16 9 -21 23 -17z m386 20 c-9 -9 -20 -13 -24 -9 -4 4 -1 11 7 16 25 16 35 11 17 -7z m262 -37 c-12 -12 -39 17 -39 43 0 10 7 8 25 -9 18 -17 22 -27 14 -34z m81 44 c0 -5 -4 -10 -10 -10 -5 0 -10 5 -10 10 0 6 5 10 10 10 6 0 10 -4 10 -10z m-130 -21 c9 -15 8 -24 -1 -35 -19 -23 -29 -16 -29 21 0 39 14 46 30 14z m20 -59 c0 -5 -5 -10 -11 -10 -5 0 -7 5 -4 10 3 6 8 10 11 10 2 0 4 -4 4 -10z m-292 -17 c-4 -22 -22 -20 -26 1 -2 10 3 16 13 16 10 0 15 -7 13 -17z m352 2 c7 -9 10 -18 7 -21 -6 -7 -47 18 -47 28 0 14 27 9 40 -7z m-440 -5 c0 -5 -4 -10 -10 -10 -5 0 -10 5 -10 10 0 6 5 10 10 10 6 0 10 -4 10 -10z m390 -39 c0 -6 -4 -13 -10 -16 -5 -3 -10 1 -10 9 0 9 5 16 10 16 6 0 10 -4 10 -9z m-174 -30 c1 0 9 -13 19 -27 25 -38 12 -164 -21 -199 -22 -24 -29 -25 -127 -25 -75 0 -106 4 -110 13 -8 22 2 240 12 246 7 5 221 -3 227 -8z m239 -70 c7 -12 -12 -24 -25 -16 -11 7 -4 25 10 25 5 0 11 -4 15 -9z m-55 -21 c0 -5 -4 -10 -10 -10 -5 0 -10 5 -10 10 0 6 5 10 10 10 6 0 10 -4 10 -10z m-545 -19 c7 -12 -12 -24 -25 -16 -11 7 -4 25 10 25 5 0 11 -4 15 -9z m565 -96 c7 -9 10 -19 6 -22 -8 -9 -38 9 -44 25 -5 17 23 15 38 -3z m-740 -72 c0 -17 -19 -35 -29 -29 -18 12 -12 36 9 36 11 0 20 -3 20 -7z m537 -55 c-3 -8 -6 -5 -6 6 -1 11 2 17 5 13 3 -3 4 -12 1 -19z m175 7 c0 -5 -5 -11 -11 -13 -6 -2 -11 4 -11 13 0 9 5 15 11 13 6 -2 11 -8 11 -13z m-36 -41 c-5 -13 -10 -14 -18 -6 -6 6 -8 18 -4 28 5 13 10 14 18 6 6 -6 8 -18 4 -28z m72 -26 c7 -7 12 -19 12 -27 0 -11 -5 -9 -20 7 -11 12 -20 24 -20 27 0 9 16 5 28 -7z m-160 -9 c-2 -6 -8 -10 -13 -10 -5 0 -11 4 -13 10 -2 6 4 11 13 11 9 0 15 -5 13 -11z m-72 -56 c-11 -11 -19 6 -11 24 8 17 8 17 12 0 3 -10 2 -21 -1 -24z m-202 -62 c3 -4 3 -11 0 -14 -8 -8 -34 3 -34 14 0 11 27 12 34 0z m311 -31 c-9 -17 -20 -28 -25 -25 -22 14 -1 55 27 55 11 0 10 -6 -2 -30z m67 -2 c5 -13 -21 -48 -34 -48 -5 0 -8 14 -8 30 0 23 5 30 19 30 11 0 21 -5 23 -12z m-122 -13 c0 -8 -7 -15 -15 -15 -16 0 -20 12 -8 23 11 12 23 8 23 -8z m180 -5 c0 -5 -5 -10 -11 -10 -5 0 -7 5 -4 10 3 6 8 10 11 10 2 0 4 -4 4 -10z m20 -80 c0 -5 -4 -10 -10 -10 -5 0 -10 5 -10 10 0 6 5 10 10 10 6 0 10 -4 10 -10z m-192 -18 c42 -32 53 -137 32 -301 0 -2 -6 2 -14 8 -11 9 -20 10 -35 1 -13 -6 -68 -10 -142 -8 l-122 3 -3 100 c-2 55 -1 123 3 152 l5 52 117 4 c64 1 121 4 126 5 6 1 20 -6 33 -16z m307 8 c-3 -5 -10 -10 -16 -10 -5 0 -9 5 -9 10 0 6 7 10 16 10 8 0 12 -4 9 -10z m-55 -30 c0 -5 -10 -19 -22 -30 -22 -21 -22 -22 -4 -35 11 -8 16 -21 13 -30 -9 -21 -24 -19 -37 4 -14 28 -13 53 6 79 15 22 44 30 44 12z m-90 -60 c0 -5 -7 -10 -15 -10 -8 0 -15 5 -15 10 0 6 7 10 15 10 8 0 15 -4 15 -10z m-535 -50 c3 -5 1 -10 -4 -10 -6 0 -11 5 -11 10 0 6 2 10 4 10 3 0 8 -4 11 -10z m625 -28 c0 -4 -5 -13 -11 -19 -7 -7 -6 -15 5 -25 15 -15 12 -28 -6 -28 -15 0 -26 44 -16 63 9 17 28 24 28 9z m-690 -111 c0 -12 -20 -25 -27 -18 -7 7 6 27 18 27 5 0 9 -4 9 -9z m-35 -121 c3 -5 1 -10 -4 -10 -6 0 -11 5 -11 10 0 6 2 10 4 10 3 0 8 -4 11 -10z m642 -124 c-7 -21 -37 -19 -37 2 0 15 5 19 20 15 12 -3 19 -11 17 -17z"/>
<path d="M13071 5807 c9 -20 9 -40 -1 -85 -11 -53 -10 -62 5 -86 10 -14 21 -26 26 -26 5 0 9 -5 9 -12 0 -16 100 -168 111 -168 5 0 9 -6 9 -14 0 -8 8 -24 19 -37 16 -20 44 -28 191 -55 l172 -31 -5 31 c-2 17 -15 74 -27 126 -26 111 -36 159 -51 255 -17 111 -23 118 -94 118 -33 0 -73 -1 -90 -3 -16 -2 -88 0 -158 5 l-128 7 12 -25z m119 -207 c0 -5 -7 -10 -16 -10 -8 0 -12 5 -9 10 3 6 10 10 16 10 5 0 9 -4 9 -10z m50 -86 c0 -8 -4 -12 -10 -9 -5 3 -10 10 -10 16 0 5 5 9 10 9 6 0 10 -7 10 -16z m280 -154 c0 -5 -5 -10 -11 -10 -5 0 -7 5 -4 10 3 6 8 10 11 10 2 0 4 -4 4 -10z"/>
<path d="M13974 5795 c-3 -6 -2 -85 1 -175 7 -201 7 -175 -1 -292 l-7 -98 31 -6 c17 -4 38 -14 47 -24 9 -10 23 -16 31 -13 9 3 14 -2 14 -15 0 -11 7 -25 15 -32 21 -17 197 -33 206 -19 5 8 8 8 13 0 13 -20 24 -12 85 67 33 42 65 82 71 89 5 7 10 14 10 16 0 2 17 22 38 44 37 40 54 49 307 153 104 42 123 60 185 169 8 14 28 43 43 63 50 65 40 73 -93 72 -63 0 -146 -2 -185 -4 -38 -2 -76 -1 -84 1 -14 4 -42 -29 -111 -130 -19 -28 -52 -74 -73 -103 -21 -29 -49 -76 -63 -104 -29 -59 -67 -99 -84 -89 -8 5 -11 67 -8 224 l3 216 -193 1 c-136 0 -195 -3 -198 -11z m903 -160 c8 -22 -6 -33 -17 -15 -13 20 -12 30 0 30 6 0 13 -7 17 -15z m-187 -30 c0 -8 -7 -15 -15 -15 -16 0 -20 12 -8 23 11 12 23 8 23 -8z m-605 -4 c3 -5 1 -12 -5 -16 -5 -3 -10 1 -10 9 0 18 6 21 15 7z m139 -62 c-3 -5 -10 -7 -15 -3 -5 3 -7 10 -3 15 3 5 10 7 15 3 5 -3 7 -10 3 -15z m496 1 c0 -5 -2 -10 -4 -10 -3 0 -8 5 -11 10 -3 6 -1 10 4 10 6 0 11 -4 11 -10z m-500 -30 c0 -5 -2 -10 -4 -10 -3 0 -8 5 -11 10 -3 6 -1 10 4 10 6 0 11 -4 11 -10z m-43 -32 c-3 -8 -6 -5 -6 6 -1 11 2 17 5 13 3 -3 4 -12 1 -19z m449 -15 c-11 -11 -19 6 -11 24 8 17 8 17 12 0 3 -10 2 -21 -1 -24z m-479 -85 c-3 -8 -6 -5 -6 6 -1 11 2 17 5 13 3 -3 4 -12 1 -19z m113 2 c0 -5 -4 -10 -10 -10 -5 0 -10 5 -10 10 0 6 5 10 10 10 6 0 10 -4 10 -10z m-140 -25 c0 -8 -7 -15 -15 -15 -16 0 -20 12 -8 23 11 12 23 8 23 -8z m199 -11 c-12 -15 -49 -20 -49 -6 0 10 43 29 53 24 4 -2 3 -10 -4 -18z m-224 -83 c3 -5 1 -12 -5 -16 -5 -3 -10 1 -10 9 0 18 6 21 15 7z m113 -110 c3 -16 -1 -22 -10 -19 -7 3 -15 15 -16 27 -3 16 1 22 10 19 7 -3 15 -15 16 -27z"/>
<path d="M5891 5757 c-11 -18 -41 -53 -66 -77 -26 -25 -53 -60 -61 -77 -8 -18 -18 -33 -24 -33 -5 0 -24 -16 -42 -35 l-33 -35 0 -349 c0 -318 2 -351 18 -368 21 -24 22 -33 2 -33 -25 0 -17 -18 15 -35 17 -9 30 -20 30 -25 0 -14 -18 -21 -22 -9 -2 7 -12 9 -23 5 -18 -5 -20 -15 -20 -113 1 -60 5 -116 9 -126 5 -11 4 -23 -3 -30 -26 -26 -12 -71 37 -120 26 -26 56 -47 65 -47 10 0 17 -6 15 -12 -4 -23 13 -56 37 -72 13 -8 42 -42 65 -75 l42 -60 325 2 c282 1 326 4 331 17 3 8 63 73 134 144 l130 130 -7 230 c-3 127 -6 238 -5 246 0 8 2 163 4 343 l4 329 -65 81 c-35 45 -72 91 -82 102 -9 11 -38 45 -64 76 l-47 56 -339 2 -339 1 -21 -33z m644 -67 c3 -5 1 -10 -4 -10 -6 0 -11 5 -11 10 0 6 2 10 4 10 3 0 8 -4 11 -10z m-130 -65 c0 -5 -10 -11 -22 -13 -16 -2 -23 2 -23 13 0 11 7 15 23 13 12 -2 22 -7 22 -13z m165 -11 c0 -8 -5 -12 -10 -9 -6 4 -8 11 -5 16 9 14 15 11 15 -7z m-420 -34 c0 -5 -4 -10 -10 -10 -5 0 -10 5 -10 10 0 6 5 10 10 10 6 0 10 -4 10 -10z m170 -8 c0 -9 -10 -12 -32 -10 -44 4 -47 24 -3 24 23 0 35 -5 35 -14z m-380 -22 c0 -5 -4 -10 -10 -10 -5 0 -10 5 -10 10 0 6 5 10 10 10 6 0 10 -4 10 -10z m620 -16 c0 -8 -4 -12 -10 -9 -5 3 -10 10 -10 16 0 5 5 9 10 9 6 0 10 -7 10 -16z m-46 -66 c-9 -31 -14 -35 -24 -18 -5 9 -5 19 2 27 17 21 30 15 22 -9z m86 -33 c0 -8 -4 -15 -10 -15 -5 0 -10 7 -10 15 0 8 5 15 10 15 6 0 10 -7 10 -15z m-533 -31 c-9 -9 -28 6 -21 18 4 6 10 6 17 -1 6 -6 8 -13 4 -17z m498 16 c3 -5 1 -10 -4 -10 -6 0 -11 5 -11 10 0 6 2 10 4 10 3 0 8 -4 11 -10z m-161 -73 l43 -42 -2 -382 c-1 -373 -1 -382 -22 -405 -12 -12 -34 -38 -50 -55 -27 -32 -29 -32 -73 -22 -25 6 -63 8 -85 4 -38 -5 -43 -3 -81 37 -61 66 -72 88 -78 169 -3 41 -5 81 -5 89 2 25 7 329 8 443 l1 107 41 45 41 44 86 4 c48 1 97 4 110 5 16 1 37 -12 66 -41z m186 25 c0 -5 -7 -17 -15 -28 -14 -18 -14 -18 -15 9 0 17 5 27 15 27 8 0 15 -4 15 -8z m-810 -12 c0 -5 -4 -10 -10 -10 -5 0 -10 5 -10 10 0 6 5 10 10 10 6 0 10 -4 10 -10z m686 -27 c-10 -10 -19 5 -10 18 6 11 8 11 12 0 2 -7 1 -15 -2 -18z m77 -48 c1 -5 -6 -11 -15 -13 -11 -2 -18 3 -18 13 0 17 30 18 33 0z m37 -19 c0 -3 -4 -8 -10 -11 -5 -3 -10 -1 -10 4 0 6 5 11 10 11 6 0 10 -2 10 -4z m80 -16 c0 -5 -4 -10 -10 -10 -5 0 -10 5 -10 10 0 6 5 10 10 10 6 0 10 -4 10 -10z m-180 -51 c0 -6 -4 -7 -10 -4 -5 3 -10 11 -10 16 0 6 5 7 10 4 6 -3 10 -11 10 -16z m-780 -243 c0 -3 -4 -8 -10 -11 -5 -3 -10 -1 -10 4 0 6 5 11 10 11 6 0 10 -2 10 -4z m930 -16 c0 -5 -2 -10 -4 -10 -3 0 -8 5 -11 10 -3 6 -1 10 4 10 6 0 11 -4 11 -10z m-133 -86 c-9 -9 -28 6 -21 18 4 6 10 6 17 -1 6 -6 8 -13 4 -17z m181 -41 c-5 -25 -28 -28 -28 -4 0 12 6 21 16 21 9 0 14 -7 12 -17z m-783 -33 c-3 -5 -11 -10 -16 -10 -6 0 -7 5 -4 10 3 6 11 10 16 10 6 0 7 -4 4 -10z m-45 -15 c0 -8 -4 -15 -9 -15 -13 0 -22 16 -14 24 11 11 23 6 23 -9z m800 -5 c0 -5 -2 -10 -4 -10 -3 0 -8 5 -11 10 -3 6 -1 10 4 10 6 0 11 -4 11 -10z m-790 -218 c-11 -22 -20 -48 -20 -57 0 -24 -17 -18 -22 8 -5 28 7 64 29 90 27 29 35 4 13 -41z m-85 -11 c3 -5 1 -12 -5 -16 -5 -3 -10 1 -10 9 0 18 6 21 15 7z m815 -85 c0 -11 -19 -15 -25 -6 -3 5 1 10 9 10 9 0 16 -2 16 -4z m-120 -61 c0 -8 -7 -15 -16 -15 -14 0 -14 3 -4 15 7 8 14 15 16 15 2 0 4 -7 4 -15z m27 -77 c-12 -38 -28 -46 -56 -29 -17 11 -7 41 13 41 9 0 20 9 27 21 17 33 29 8 16 -33z m-567 13 c0 -6 -4 -13 -10 -16 -5 -3 -10 1 -10 9 0 9 5 16 10 16 6 0 10 -4 10 -9z m304 -17 c24 -9 19 -27 -9 -41 -23 -10 -25 -9 -25 11 0 33 8 40 34 30z m96 -4 c0 -5 -4 -10 -10 -10 -5 0 -10 5 -10 10 0 6 5 10 10 10 6 0 10 -4 10 -10z m-360 -25 c0 -8 -4 -15 -10 -15 -5 0 -10 7 -10 15 0 8 5 15 10 15 6 0 10 -7 10 -15z m346 -24 c-8 -13 -36 -15 -36 -3 0 4 5 13 12 20 14 14 34 0 24 -17z m234 -16 c0 -8 -4 -15 -10 -15 -5 0 -10 7 -10 15 0 8 5 15 10 15 6 0 10 -7 10 -15z m-290 -26 c0 -11 -4 -17 -10 -14 -5 3 -10 13 -10 21 0 8 5 14 10 14 6 0 10 -9 10 -21z m-183 -11 c-3 -8 -6 -5 -6 6 -1 11 2 17 5 13 3 -3 4 -12 1 -19z m-122 -7 c3 -5 1 -12 -5 -16 -5 -3 -10 1 -10 9 0 18 6 21 15 7z"/>
<path d="M6943 5673 c0 -65 -1 -127 -2 -138 -2 -11 0 -120 3 -243 3 -123 2 -231 -3 -240 -4 -10 -4 -43 0 -77 13 -93 16 -209 6 -216 -13 -9 10 -164 29 -201 18 -35 18 -39 -3 -36 -14 2 -18 -3 -16 -27 1 -16 -3 -52 -9 -78 -7 -34 -7 -61 1 -93 6 -25 9 -49 6 -55 -4 -5 -9 -56 -11 -113 -5 -94 -4 -105 13 -113 10 -5 95 -9 188 -9 l170 1 7 190 c4 119 3 210 -3 243 -6 29 -7 67 -3 85 10 47 6 235 -6 258 -8 13 -7 31 1 59 12 40 22 49 34 30 3 -5 15 -10 26 -10 15 0 19 -5 15 -18 -4 -12 3 -28 18 -45 13 -14 27 -44 31 -67 5 -27 15 -46 31 -57 14 -9 24 -25 24 -39 0 -12 18 -44 40 -69 26 -30 40 -56 40 -75 0 -17 16 -50 44 -87 24 -33 49 -76 56 -96 6 -21 23 -45 36 -54 14 -9 24 -25 24 -39 0 -13 18 -50 39 -82 21 -31 46 -74 55 -96 l16 -39 73 7 c94 9 93 9 222 5 l110 -4 -1 125 c-1 69 -2 132 -2 140 -1 8 -1 83 -1 165 0 83 -1 412 -1 732 l-2 582 -31 6 c-18 2 -88 1 -157 -3 -73 -5 -137 -4 -153 1 -58 19 -59 15 -54 -187 3 -101 8 -189 12 -196 4 -6 3 -16 -2 -23 -5 -7 -8 -91 -6 -187 1 -96 2 -197 2 -225 1 -41 5 -53 28 -71 16 -12 25 -26 21 -30 -4 -4 -14 -1 -22 5 -12 10 -17 8 -26 -8 -6 -12 -15 -21 -19 -21 -12 0 -47 58 -91 152 -20 42 -41 83 -46 90 -5 7 -20 33 -33 58 -13 25 -29 52 -36 60 -7 8 -31 51 -54 94 -24 44 -53 95 -65 115 -12 20 -35 62 -51 94 -15 31 -32 60 -36 63 -5 3 -16 21 -24 40 -8 19 -19 34 -24 34 -6 0 -11 8 -11 18 0 9 -11 34 -25 54 -14 20 -25 42 -25 47 0 11 -21 13 -160 16 -36 1 -82 5 -103 10 -23 4 -48 3 -62 -3 -15 -7 -26 -7 -33 0 -7 7 -10 -28 -9 -109z m1081 -4 c-3 -5 -10 -7 -15 -3 -5 3 -7 10 -3 15 3 5 10 7 15 3 5 -3 7 -10 3 -15z m-949 -58 c3 -5 1 -12 -5 -16 -5 -3 -10 1 -10 9 0 18 6 21 15 7z m949 -6 c3 -9 0 -15 -9 -15 -8 0 -15 7 -15 15 0 8 4 15 9 15 5 0 11 -7 15 -15z m-666 -13 c2 -7 -3 -12 -12 -12 -9 0 -16 7 -16 16 0 17 22 14 28 -4z m582 -12 c0 -5 -5 -10 -11 -10 -5 0 -7 5 -4 10 3 6 8 10 11 10 2 0 4 -4 4 -10z m-910 -20 c0 -5 -4 -10 -10 -10 -5 0 -10 5 -10 10 0 6 5 10 10 10 6 0 10 -4 10 -10z m150 0 c0 -5 -5 -10 -11 -10 -5 0 -7 5 -4 10 3 6 8 10 11 10 2 0 4 -4 4 -10z m63 -15 c-4 -15 -36 -12 -41 3 -3 9 3 13 19 10 13 -1 23 -7 22 -13z m872 -5 c3 -5 -1 -10 -9 -10 -9 0 -16 5 -16 10 0 6 4 10 9 10 6 0 13 -4 16 -10z m-825 -25 c0 -14 -4 -25 -10 -25 -11 0 -14 33 -3 43 11 11 13 8 13 -18z m-84 -102 c-14 -15 -26 -31 -26 -35 0 -5 -7 -8 -15 -8 -9 0 -15 -9 -15 -24 0 -29 -27 -56 -35 -34 -14 35 46 121 90 130 30 6 30 2 1 -29z m152 -35 c1 -51 0 -52 -13 -28 -18 32 -19 80 -2 80 10 0 14 -16 15 -52z m-260 18 c3 -12 -1 -17 -10 -14 -7 3 -15 13 -16 22 -3 12 1 17 10 14 7 -3 15 -13 16 -22z m872 9 c0 -8 -4 -15 -10 -15 -5 0 -10 7 -10 15 0 8 5 15 10 15 6 0 10 -7 10 -15z m-890 -66 c0 -5 -7 -9 -15 -9 -15 0 -20 12 -9 23 8 8 24 -1 24 -14z m247 -25 c-9 -9 -28 6 -21 18 4 6 10 6 17 -1 6 -6 8 -13 4 -17z m-143 -20 c3 -9 2 -22 -2 -30 -7 -12 -11 -12 -27 0 -16 11 -17 15 -4 29 18 21 25 21 33 1z m956 -57 c0 -5 -4 -5 -10 -2 -5 3 -10 14 -10 23 0 15 2 15 10 2 5 -8 10 -19 10 -23z m-170 3 c0 -5 -5 -10 -11 -10 -5 0 -7 5 -4 10 3 6 8 10 11 10 2 0 4 -4 4 -10z m-890 -30 c0 -5 -4 -10 -10 -10 -5 0 -10 5 -10 10 0 6 5 10 10 10 6 0 10 -4 10 -10z m1050 -37 c0 -22 -45 3 -48 27 -4 22 -4 22 22 4 14 -11 26 -24 26 -31z m-675 28 c3 -5 1 -12 -5 -16 -5 -3 -10 1 -10 9 0 18 6 21 15 7z m79 -10 c13 -14 14 -21 5 -27 -7 -4 -18 1 -26 11 -26 36 -9 49 21 16z m-387 -13 c-3 -8 -6 -5 -6 6 -1 11 2 17 5 13 3 -3 4 -12 1 -19z m318 -37 c-9 -16 -25 -3 -18 15 4 10 9 12 15 6 6 -6 7 -15 3 -21z m45 -1 c0 -5 -4 -10 -10 -10 -5 0 -10 5 -10 10 0 6 5 10 10 10 6 0 10 -4 10 -10z m-320 -54 c0 -3 -4 -8 -10 -11 -5 -3 -10 -1 -10 4 0 6 5 11 10 11 6 0 10 -2 10 -4z m840 -10 c0 -11 -19 -15 -25 -6 -3 5 1 10 9 10 9 0 16 -2 16 -4z m-730 -25 c0 -20 -17 -37 -27 -28 -7 8 7 47 18 47 5 0 9 -9 9 -19z m200 -31 c0 -5 -4 -10 -10 -10 -5 0 -10 5 -10 10 0 6 5 10 10 10 6 0 10 -4 10 -10z m490 -20 c0 -5 -5 -10 -11 -10 -5 0 -7 5 -4 10 3 6 8 10 11 10 2 0 4 -4 4 -10z m-770 -7 c-1 -18 -58 -76 -68 -69 -16 10 -15 36 1 36 7 0 18 9 25 20 12 19 42 28 42 13z m-121 -60 c-8 -9 -16 -10 -22 -4 -13 13 0 31 19 24 11 -4 12 -8 3 -20z m641 17 c0 -5 -7 -10 -15 -10 -8 0 -15 5 -15 10 0 6 7 10 15 10 8 0 15 -4 15 -10z m-190 -69 c0 -17 -5 -33 -11 -36 -15 -10 -17 -4 -12 33 6 40 23 42 23 3z m430 19 c0 -12 -28 -25 -36 -17 -9 9 6 27 22 27 8 0 14 -5 14 -10z m-280 -60 c0 -11 -4 -20 -10 -20 -5 0 -10 9 -10 20 0 11 5 20 10 20 6 0 10 -9 10 -20z m-480 -56 c0 -8 -5 -12 -10 -9 -6 4 -8 11 -5 16 9 14 15 11 15 -7z m343 -13 c3 -14 1 -18 -9 -14 -8 3 -14 11 -14 19 0 21 17 17 23 -5z m395 -3 c-3 -20 -9 -23 -43 -23 -29 0 -40 4 -40 15 0 10 10 15 27 15 14 0 30 3 34 8 14 14 25 7 22 -15z m-228 -22 c0 -16 -18 -31 -27 -22 -8 8 5 36 17 36 5 0 10 -6 10 -14z m-610 -6 c0 -5 -5 -10 -11 -10 -5 0 -7 5 -4 10 3 6 8 10 11 10 2 0 4 -4 4 -10z m510 0 c0 -5 -4 -10 -10 -10 -5 0 -10 5 -10 10 0 6 5 10 10 10 6 0 10 -4 10 -10z m50 -11 c0 -5 -7 -9 -15 -9 -15 0 -20 12 -9 23 8 8 24 -1 24 -14z m355 -22 c0 -26 -20 -25 -23 2 -3 16 1 22 10 19 7 -3 13 -12 13 -21z m-935 5 c0 -13 -12 -22 -22 -16 -10 6 -1 24 13 24 5 0 9 -4 9 -8z m668 -33 c-2 -6 -8 -10 -13 -10 -5 0 -11 4 -13 10 -2 6 4 11 13 11 9 0 15 -5 13 -11z m222 -29 c0 -5 -4 -10 -10 -10 -5 0 -10 5 -10 10 0 6 5 10 10 10 6 0 10 -4 10 -10z m-770 -20 c0 -5 -5 -10 -11 -10 -5 0 -7 5 -4 10 3 6 8 10 11 10 2 0 4 -4 4 -10z m720 1 c0 -12 -20 -25 -27 -18 -7 7 6 27 18 27 5 0 9 -4 9 -9z m-162 -32 c27 -9 30 -14 22 -30 -13 -23 -19 -23 -49 0 -13 10 -21 23 -17 30 9 13 6 13 44 0z m-652 -46 c-10 -10 -19 5 -10 18 6 11 8 11 12 0 2 -7 1 -15 -2 -18z m-46 -3 c0 -5 -4 -10 -10 -10 -5 0 -10 5 -10 10 0 6 5 10 10 10 6 0 10 -4 10 -10z m100 0 c0 -5 -4 -10 -10 -10 -5 0 -10 5 -10 10 0 6 5 10 10 10 6 0 10 -4 10 -10z m800 -10 c0 -5 -4 -10 -10 -10 -5 0 -10 5 -10 10 0 6 5 10 10 10 6 0 10 -4 10 -10z m-110 -15 c0 -8 -4 -15 -10 -15 -5 0 -10 7 -10 15 0 8 5 15 10 15 6 0 10 -7 10 -15z m-45 -34 c-3 -12 -11 -21 -16 -21 -10 0 -12 43 -2 54 12 12 25 -11 18 -33z m-57 -29 c-4 -31 -24 -27 -21 4 1 15 -3 24 -13 24 -8 0 -12 4 -9 10 11 18 46 -13 43 -38z m12 -63 c0 -5 -7 -9 -15 -9 -15 0 -20 12 -9 23 8 8 24 -1 24 -14z m195 1 c3 -5 -1 -10 -10 -10 -9 0 -13 5 -10 10 3 6 8 10 10 10 2 0 7 -4 10 -10z m-890 -60 c-5 -8 -11 -8 -17 -2 -6 6 -7 16 -3 22 5 8 11 8 17 2 6 -6 7 -16 3 -22z m935 -14 c0 -3 -4 -8 -10 -11 -5 -3 -10 -1 -10 4 0 6 5 11 10 11 6 0 10 -2 10 -4z m75 -16 c3 -5 1 -10 -4 -10 -6 0 -11 5 -11 10 0 6 2 10 4 10 3 0 8 -4 11 -10z m-175 -16 c0 -8 -5 -12 -10 -9 -6 4 -8 11 -5 16 9 14 15 11 15 -7z m40 -85 c0 -10 -4 -19 -9 -19 -12 0 -23 29 -15 41 8 14 24 0 24 -22z m-724 -84 c-3 -9 -11 -13 -16 -10 -8 5 -7 11 1 21 14 18 24 11 15 -11z m788 10 c-4 -8 -8 -15 -10 -15 -2 0 -4 7 -4 15 0 8 4 15 10 15 5 0 7 -7 4 -15z"/>
<path d="M12721 5694 c0 -11 3 -14 6 -6 3 7 2 16 -1 19 -3 4 -6 -2 -5 -13z"/>
<path d="M12765 5616 c-8 -19 -15 -64 -15 -99 l0 -64 83 -11 c64 -9 93 -9 131 1 l50 13 -108 95 c-60 51 -112 96 -117 97 -5 2 -16 -12 -24 -32z"/>
<path d="M14800 5430 c-52 -32 -96 -63 -98 -69 -2 -6 -10 -11 -18 -11 -34 0 -92 -47 -144 -116 -30 -41 -54 -78 -52 -84 1 -5 -4 -10 -10 -10 -7 -1 -34 -30 -61 -65 l-48 -65 -57 6 c-31 3 -68 8 -82 10 -27 6 -23 1 140 -168 l64 -68 248 0 247 0 -9 28 c-4 15 -16 54 -25 87 -10 33 -32 107 -51 165 -74 233 -74 216 -5 313 23 32 41 62 41 67 0 5 7 16 16 24 27 28 1 16 -96 -44z m-140 -150 c0 -5 -4 -10 -10 -10 -5 0 -10 5 -10 10 0 6 5 10 10 10 6 0 10 -4 10 -10z m20 -135 c0 -8 -4 -15 -9 -15 -13 0 -22 16 -14 24 11 11 23 6 23 -9z m-280 -209 c0 -3 -4 -8 -10 -11 -5 -3 -10 -1 -10 4 0 6 5 11 10 11 6 0 10 -2 10 -4z m60 -71 c0 -14 -4 -25 -10 -25 -5 0 -10 11 -10 25 0 14 5 25 10 25 6 0 10 -11 10 -25z"/>
<path d="M12771 5350 c-48 -11 -78 -24 -85 -36 -63 -108 -76 -136 -59 -129 10 4 36 14 59 21 42 15 202 165 174 163 -8 0 -48 -9 -89 -19z"/>
<path d="M12961 5233 c-6 -21 -11 -50 -11 -65 0 -15 -4 -29 -9 -32 -9 -6 -13 -23 -37 -136 -7 -36 -18 -90 -24 -120 -7 -30 -17 -64 -23 -75 -14 -26 -47 -190 -47 -235 0 -19 -9 -53 -19 -75 -22 -46 -52 -171 -45 -189 3 -7 -2 -26 -11 -42 -8 -16 -15 -39 -15 -52 0 -12 -7 -34 -16 -47 -9 -13 -13 -29 -9 -34 3 -6 1 -20 -5 -32 -7 -11 -9 -31 -6 -42 5 -22 8 -22 187 -20 99 0 185 5 190 10 6 6 15 32 22 59 l12 49 175 0 175 0 10 -59 c8 -44 15 -61 30 -66 29 -11 372 -12 379 -2 7 11 -7 86 -29 167 -17 62 -24 92 -49 232 -8 45 -17 86 -20 91 -3 5 -12 54 -21 108 -25 167 -67 358 -82 375 -8 9 -13 27 -12 40 2 13 -1 43 -5 67 l-9 42 -63 0 -62 0 19 -57 c31 -88 36 -149 13 -174 -16 -17 -19 -37 -19 -112 0 -63 4 -92 13 -94 6 -3 12 -13 12 -23 0 -16 7 -37 45 -125 45 -108 46 -118 4 -50 -45 72 -48 73 -48 24 1 -63 -11 -121 -25 -116 -7 2 -11 40 -12 108 -1 57 -2 109 -3 116 -2 20 -51 -32 -51 -55 0 -26 -11 -34 -30 -22 -12 7 -12 12 -2 22 6 6 12 19 12 29 0 9 10 29 22 44 18 23 19 30 9 47 -9 15 -11 60 -5 180 6 136 5 159 -7 156 -23 -5 -103 62 -90 75 26 26 11 37 -53 37 -42 0 -81 7 -115 21 -28 12 -54 20 -56 17 -3 -3 2 -52 10 -111 l15 -106 -80 -238 c-44 -131 -81 -239 -81 -240 -1 -2 -2 -6 -3 -10 -1 -5 -5 -13 -8 -19 -4 -6 -14 -37 -22 -68 -21 -78 -33 -97 -34 -55 0 19 5 41 12 49 15 17 146 459 146 493 0 12 -16 97 -36 188 -33 150 -39 168 -61 178 -32 15 -31 16 -42 -26z m255 -132 c-4 -6 -12 -11 -18 -11 -7 0 -6 6 2 15 9 10 9 15 1 15 -6 0 -11 5 -11 12 0 8 6 7 16 -4 9 -9 13 -21 10 -27z m134 0 c0 -12 -20 -25 -27 -18 -7 7 6 27 18 27 5 0 9 -4 9 -9z m-90 -16 c0 -8 -7 -15 -15 -15 -16 0 -20 12 -8 23 11 12 23 8 23 -8z m-210 -41 c0 -22 -2 -25 -15 -14 -8 7 -15 19 -15 26 0 8 7 14 15 14 10 0 15 -10 15 -26z m300 -3 c0 -5 2 -15 5 -23 4 -9 -5 -14 -25 -15 -32 -2 -40 13 -18 35 14 14 38 16 38 3z m-41 -153 c7 -46 19 -114 26 -153 8 -38 16 -88 17 -109 3 -35 0 -40 -25 -47 -15 -4 -49 -4 -75 -1 -45 7 -47 9 -50 41 -2 19 1 44 6 55 5 12 15 64 22 116 10 86 23 151 36 189 10 31 31 -12 43 -91z m-344 -168 c10 -16 -16 -43 -28 -31 -11 11 -2 41 12 41 5 0 13 -5 16 -10z m73 -7 c-2 -10 -10 -18 -18 -18 -8 0 -16 8 -18 18 -2 12 3 17 18 17 15 0 20 -5 18 -17z m-48 -37 c0 -3 -4 -8 -10 -11 -5 -3 -10 -1 -10 4 0 6 5 11 10 11 6 0 10 -2 10 -4z m510 -137 c0 -32 -6 -35 -32 -15 -16 12 -16 14 0 34 21 26 32 19 32 -19z m-110 -69 c0 -5 -4 -10 -10 -10 -5 0 -10 5 -10 10 0 6 5 10 10 10 6 0 10 -4 10 -10z m84 -50 c18 0 39 -27 32 -39 -9 -14 -58 9 -52 25 2 6 0 16 -6 22 -6 6 -7 16 -2 24 7 10 10 7 12 -9 2 -13 9 -23 16 -23z m121 20 c-3 -5 -10 -10 -16 -10 -5 0 -9 5 -9 10 0 6 7 10 16 10 8 0 12 -4 9 -10z m-158 -45 c8 -23 -2 -28 -42 -21 -54 10 -43 28 23 35 7 0 15 -6 19 -14z m60 -51 c-3 -3 -12 -4 -19 -1 -8 3 -5 6 6 6 11 1 17 -2 13 -5z m104 -57 c-8 -8 -11 -3 -11 19 1 25 2 27 11 11 8 -14 8 -22 0 -30z m-74 -34 c4 -11 -26 -27 -35 -19 -2 3 -2 12 2 21 6 18 27 16 33 -2z"/>
<path d="M12793 5147 c-123 -140 -119 -133 -99 -195 10 -29 21 -52 24 -52 4 1 41 72 82 158 40 86 78 165 82 175 5 9 7 17 5 17 -2 0 -44 -46 -94 -103z"/>
<path d="M12285 5141 c-16 -3 -183 -145 -321 -274 -24 -22 -57 -35 -140 -56 l-109 -27 -1 -368 c-1 -249 3 -369 10 -373 17 -11 140 -11 153 -1 7 6 33 5 70 -2 45 -9 247 -10 348 -1 6 0 74 -2 152 -5 131 -4 143 -3 152 14 11 20 13 332 3 348 -4 7 -83 11 -207 11 -328 1 -302 -2 -309 36 -3 17 -6 37 -5 42 1 6 3 66 6 135 l4 125 209 -1 c148 -1 210 2 213 10 2 6 1 43 -2 81 -3 39 -4 119 -1 179 3 59 2 113 -2 120 -7 10 -177 16 -223 7z m5 -231 c-8 -15 -15 -19 -22 -12 -7 7 -6 17 2 32 8 15 15 19 22 12 7 -7 6 -17 -2 -32z m-122 8 c-6 -18 -28 -21 -28 -4 0 9 7 16 16 16 9 0 14 -5 12 -12z m130 -66 c3 -9 -3 -13 -19 -10 -12 1 -24 9 -27 16 -3 9 3 13 19 10 12 -1 24 -9 27 -16z m-398 -77 c0 -8 -2 -15 -4 -15 -2 0 -6 7 -10 15 -3 8 -1 15 4 15 6 0 10 -7 10 -15z m-50 -5 c0 -5 -4 -10 -10 -10 -5 0 -10 5 -10 10 0 6 5 10 10 10 6 0 10 -4 10 -10z m100 -9 c0 -11 -4 -22 -9 -25 -11 -7 -20 14 -13 32 7 19 22 14 22 -7z m-10 -106 c23 -46 20 -52 -14 -30 -28 18 -43 56 -31 75 9 15 20 4 45 -45z m-110 -25 c0 -5 -5 -10 -11 -10 -5 0 -7 5 -4 10 3 6 8 10 11 10 2 0 4 -4 4 -10z m170 -20 c0 -5 -4 -10 -10 -10 -5 0 -10 5 -10 10 0 6 5 10 10 10 6 0 10 -4 10 -10z m50 -11 c0 -5 -7 -9 -15 -9 -15 0 -20 12 -9 23 8 8 24 -1 24 -14z m-50 -58 c0 -12 -20 -25 -27 -18 -7 7 6 27 18 27 5 0 9 -4 9 -9z m100 -215 c0 -8 -4 -17 -9 -21 -12 -7 -24 12 -16 25 9 15 25 12 25 -4z m270 4 c0 -5 -4 -10 -10 -10 -5 0 -10 5 -10 10 0 6 5 10 10 10 6 0 10 -4 10 -10z m-470 -10 c0 -5 -2 -10 -4 -10 -3 0 -8 5 -11 10 -3 6 -1 10 4 10 6 0 11 -4 11 -10z m106 -46 c-3 -8 -10 -14 -16 -14 -11 0 -14 43 -3 54 10 10 26 -23 19 -40z m314 15 c0 -11 -27 -12 -34 0 -3 4 -3 11 0 14 8 8 34 -3 34 -14z m-405 1 c3 -5 1 -10 -4 -10 -6 0 -11 5 -11 10 0 6 2 10 4 10 3 0 8 -4 11 -10z m480 -89 c-13 -41 -37 -12 -27 32 4 16 7 17 19 4 9 -9 12 -23 8 -36z m-155 9 c0 -5 -6 -10 -14 -10 -8 0 -18 5 -21 10 -3 6 3 10 14 10 12 0 21 -4 21 -10z m70 -4 c0 -11 -19 -15 -25 -6 -3 5 1 10 9 10 9 0 16 -2 16 -4z m-350 -37 c0 -11 -4 -17 -10 -14 -5 3 -10 13 -10 21 0 8 5 14 10 14 6 0 10 -9 10 -21z m500 2 c0 -6 -4 -13 -10 -16 -5 -3 -10 1 -10 9 0 9 5 16 10 16 6 0 10 -4 10 -9z m-115 -51 c3 -5 1 -10 -4 -10 -6 0 -11 5 -11 10 0 6 2 10 4 10 3 0 8 -4 11 -10z m-495 -54 c0 -3 -4 -8 -10 -11 -5 -3 -10 -1 -10 4 0 6 5 11 10 11 6 0 10 -2 10 -4z"/>
<path d="M13969 5033 c-1 -54 0 -107 2 -118 2 -11 3 -33 2 -50 -5 -201 -7 -326 -6 -405 3 -122 3 -150 1 -235 -1 -38 -2 -97 -2 -130 l-1 -60 198 -2 197 -2 1 82 c0 45 0 169 -1 275 -1 189 -1 194 25 248 l27 56 -23 27 c-49 55 -404 411 -411 411 -5 0 -9 -44 -9 -97z m212 -146 c-5 -12 -18 -23 -30 -25 -27 -4 -27 6 0 35 26 27 41 22 30 -10z m-37 -178 c-8 -14 -24 -10 -24 6 0 9 6 12 15 9 8 -4 12 -10 9 -15z m186 -28 c0 -6 -4 -13 -10 -16 -5 -3 -10 1 -10 9 0 9 5 16 10 16 6 0 10 -4 10 -9z m-100 -41 c0 -5 -4 -10 -10 -10 -5 0 -10 5 -10 10 0 6 5 10 10 10 6 0 10 -4 10 -10z m-50 -20 c0 -5 -5 -10 -11 -10 -5 0 -7 5 -4 10 3 6 8 10 11 10 2 0 4 -4 4 -10z m-120 -284 c0 -3 -4 -8 -10 -11 -5 -3 -10 -1 -10 4 0 6 5 11 10 11 6 0 10 -2 10 -4z m175 -76 c3 -5 -1 -10 -10 -10 -9 0 -13 5 -10 10 3 6 8 10 10 10 2 0 7 -4 10 -10z"/>
<path d="M11162 4699 l-62 -61 22 -37 c12 -20 25 -38 28 -41 33 -25 43 -102 44 -325 l1 -190 60 -8 c33 -4 121 -9 195 -10 l135 -2 7 60 c5 33 7 166 5 296 l-2 235 -30 43 c-16 23 -39 55 -50 71 l-20 29 -135 0 -135 1 -63 -61z m218 41 c0 -5 -5 -10 -11 -10 -5 0 -7 5 -4 10 3 6 8 10 11 10 2 0 4 -4 4 -10z m-60 -300 c0 -5 -4 -10 -10 -10 -5 0 -10 5 -10 10 0 6 5 10 10 10 6 0 10 -4 10 -10z"/>
<path d="M14819 4693 c-12 -3 -18 -21 -23 -66 -4 -34 -9 -82 -12 -107 l-6 -45 74 -24 c100 -32 101 -33 121 -75 23 -49 58 -136 53 -136 -1 0 -23 26 -47 58 -38 47 -53 59 -92 70 -26 6 -61 12 -77 12 -17 0 -30 4 -30 9 0 5 -11 12 -24 15 -29 7 -34 26 -36 146 -1 53 -6 87 -13 92 -9 6 -8 10 3 17 25 17 2 24 -66 22 -100 -4 -105 -7 -88 -56 14 -39 42 -127 66 -210 6 -22 16 -46 21 -53 6 -7 14 -32 18 -55 13 -71 35 -138 47 -145 6 -4 14 -30 17 -58 4 -28 10 -56 14 -62 5 -9 148 -16 226 -11 11 1 50 -1 87 -4 54 -4 68 -2 73 11 5 13 8 12 21 -4 14 -18 15 -17 10 16 -4 36 -60 211 -77 243 -14 26 -59 170 -59 187 1 8 -14 61 -32 117 l-33 103 -60 -1 c-33 -1 -67 -3 -76 -6z m121 -33 c0 -5 -4 -10 -10 -10 -5 0 -10 5 -10 10 0 6 5 10 10 10 6 0 10 -4 10 -10z m-260 -59 c0 -12 -20 -25 -27 -18 -7 7 6 27 18 27 5 0 9 -4 9 -9z m180 -241 c0 -5 -8 -10 -17 -10 -15 0 -16 2 -3 10 19 12 20 12 20 0z m20 -60 c0 -5 -2 -10 -4 -10 -3 0 -8 5 -11 10 -3 6 -1 10 4 10 6 0 11 -4 11 -10z"/>
<path d="M15233 4371 c1 -176 5 -323 10 -327 11 -11 140 -13 154 -2 7 6 33 5 70 -2 45 -9 252 -10 348 -1 6 0 74 -2 151 -4 170 -6 168 -7 164 98 -3 78 -3 96 1 172 2 28 0 62 -4 76 l-7 26 -202 0 c-334 1 -308 -1 -308 31 0 15 -5 33 -11 39 -8 8 -8 13 0 17 20 13 12 56 -11 66 -29 12 -350 130 -354 130 -2 0 -2 -144 -1 -319z m285 167 c-2 -6 -10 -14 -16 -16 -7 -2 -10 2 -6 12 7 18 28 22 22 4z m102 -212 c0 -8 -4 -17 -9 -21 -12 -7 -24 12 -16 25 9 15 25 12 25 -4z m275 4 c-3 -5 -10 -10 -16 -10 -5 0 -9 5 -9 10 0 6 7 10 16 10 8 0 12 -4 9 -10z m-475 -10 c0 -5 -2 -10 -4 -10 -3 0 -8 5 -11 10 -3 6 -1 10 4 10 6 0 11 -4 11 -10z m106 -47 c-10 -26 -29 1 -21 28 7 20 8 21 17 5 5 -9 7 -24 4 -33z m314 16 c0 -5 -7 -9 -15 -9 -8 0 -15 7 -15 15 0 9 6 12 15 9 8 -4 15 -10 15 -15z m-405 1 c3 -5 1 -10 -4 -10 -6 0 -11 5 -11 10 0 6 2 10 4 10 3 0 8 -4 11 -10z m200 -30 c3 -5 1 -10 -4 -10 -6 0 -11 5 -11 10 0 6 2 10 4 10 3 0 8 -4 11 -10z m60 -10 c3 -5 1 -10 -4 -10 -6 0 -11 5 -11 10 0 6 2 10 4 10 3 0 8 -4 11 -10z m220 -40 c0 -13 -6 -25 -12 -27 -9 -3 -13 6 -13 27 0 21 4 30 13 28 6 -3 12 -15 12 -28z m-155 0 c0 -5 -7 -10 -15 -10 -8 0 -15 5 -15 10 0 6 7 10 15 10 8 0 15 -4 15 -10z m70 -4 c0 -11 -19 -15 -25 -6 -3 5 1 10 9 10 9 0 16 -2 16 -4z m-349 -49 c-8 -8 -11 -3 -11 19 1 25 2 27 11 11 8 -14 8 -22 0 -30z m499 7 c0 -8 -4 -12 -10 -9 -5 3 -10 10 -10 16 0 5 5 9 10 9 6 0 10 -7 10 -16z m-115 -44 c3 -5 1 -10 -4 -10 -6 0 -11 5 -11 10 0 6 2 10 4 10 3 0 8 -4 11 -10z"/>
<path d="M10844 4389 l-51 -51 -108 11 c-171 17 -154 27 -155 -86 0 -54 -2 -125 -3 -158 -2 -59 -2 -60 28 -66 17 -4 99 -7 183 -8 116 -1 154 2 158 12 2 7 3 99 2 205 l-3 192 -51 -51z"/>
<path d="M5675 4029 c18 -5 33 -5 39 1 7 7 -4 10 -29 9 -40 -1 -40 -1 -10 -10z"/>
</g>
</svg>